<svg width="70" height="70" viewBox="0 0 70 70" fill="none" xmlns="http://www.w3.org/2000/svg">
<g opacity="0.2">
<circle cx="3" cy="35" r="3" fill="#6D6D6D"/>
<circle cx="3" cy="19" r="3" fill="#6D6D6D"/>
<circle cx="3" cy="3" r="3" fill="#6D6D6D"/>
<circle cx="3" cy="51" r="3" fill="#6D6D6D"/>
<circle cx="3" cy="67" r="3" fill="#6D6D6D"/>
<circle cx="35" cy="35" r="3" fill="#6D6D6D"/>
<circle cx="35" cy="19" r="3" fill="#6D6D6D"/>
<circle cx="35" cy="3" r="3" fill="#6D6D6D"/>
<circle cx="35" cy="51" r="3" fill="#6D6D6D"/>
<circle cx="35" cy="67" r="3" fill="#6D6D6D"/>
<circle cx="19" cy="35" r="3" fill="#6D6D6D"/>
<circle cx="19" cy="19" r="3" fill="#6D6D6D"/>
<circle cx="19" cy="3" r="3" fill="#6D6D6D"/>
<circle cx="19" cy="51" r="3" fill="#6D6D6D"/>
<circle cx="19" cy="67" r="3" fill="#6D6D6D"/>
<circle cx="51" cy="35" r="3" fill="#6D6D6D"/>
<circle cx="51" cy="19" r="3" fill="#6D6D6D"/>
<circle cx="51" cy="3" r="3" fill="#6D6D6D"/>
<circle cx="51" cy="51" r="3" fill="#6D6D6D"/>
<circle cx="51" cy="67" r="3" fill="#6D6D6D"/>
<circle cx="67" cy="35" r="3" fill="#6D6D6D"/>
<circle cx="67" cy="19" r="3" fill="#6D6D6D"/>
<circle cx="67" cy="3" r="3" fill="#6D6D6D"/>
<circle cx="67" cy="51" r="3" fill="#6D6D6D"/>
<circle cx="67" cy="67" r="3" fill="#6D6D6D"/>
</g>
<path d="M50.2578 21.0076C49.4102 19.1549 48.2053 17.4898 46.6674 16.067C43.5432 13.1668 39.3957 11.5684 35 11.5684C30.6043 11.5684 26.4568 13.1668 23.3326 16.0609C21.7947 17.4898 20.5898 19.1488 19.7422 21.0076C18.8582 22.9451 18.4102 24.9977 18.4102 27.1168V28.7516C18.4102 29.127 18.7129 29.4297 19.0883 29.4297H22.3578C22.7332 29.4297 23.0359 29.127 23.0359 28.7516V27.1168C23.0359 21.0924 28.4004 16.1941 35 16.1941C41.5996 16.1941 46.9641 21.0924 46.9641 27.1168C46.9641 29.5871 46.0861 31.9121 44.4211 33.8496C42.7742 35.7689 40.4492 37.1434 37.876 37.7246C36.4047 38.0576 35.0787 38.8871 34.1402 40.0738C33.205 41.2565 32.6953 42.7196 32.6932 44.2273V46.1285C32.6932 46.5039 32.9959 46.8066 33.3713 46.8066H36.6408C37.0162 46.8066 37.3189 46.5039 37.3189 46.1285V44.2273C37.3189 43.2768 37.9789 42.4412 38.8932 42.2354C42.4291 41.4361 45.6381 39.5289 47.9328 36.8648C49.0893 35.5146 49.9914 34.0131 50.615 32.3844C51.2629 30.6951 51.5898 28.9211 51.5898 27.1168C51.5898 24.9977 51.1418 22.9391 50.2578 21.0076ZM35 51.6504C33.1291 51.6504 31.6094 53.1701 31.6094 55.041C31.6094 56.9119 33.1291 58.4316 35 58.4316C36.8709 58.4316 38.3906 56.9119 38.3906 55.041C38.3906 53.1701 36.8709 51.6504 35 51.6504Z" fill="#EB7B14"/>
</svg>
