<svg width="148" height="72" viewBox="0 0 148 72" fill="none" xmlns="http://www.w3.org/2000/svg">
<path d="M90.7582 56.052C82.3945 62.322 70.2742 65.652 59.8314 65.652C45.883 65.7209 32.412 60.4955 22.0589 51C21.2793 50.28 21.9763 49.296 22.9154 49.854C34.4245 56.5454 47.4566 60.0618 60.7174 60.054C70.6229 60.0048 80.4209 57.9656 89.5473 54.054C90.959 53.454 92.1462 55.002 90.7641 56.04" fill="#898989"/>
<path d="M94.237 52.0201C95.3061 53.4121 93.0557 59.1421 92.0397 61.7041C91.7326 62.4781 92.3882 62.7901 93.0793 62.2021C97.5624 58.3921 98.7201 50.4061 97.8046 49.2481C96.889 48.0901 89.051 47.1241 84.2667 50.5381C83.5284 51.0601 83.676 51.7861 84.4675 51.6841C87.1668 51.3601 93.162 50.6281 94.237 52.0201ZM84.6625 26.4001C84.6607 26.5121 84.6816 26.6234 84.7237 26.7269C84.7659 26.8305 84.8284 26.9242 84.9075 27.0023C84.9866 27.0804 85.0806 27.1413 85.1837 27.1811C85.2868 27.221 85.3969 27.239 85.5071 27.2341H93.1561L84.3671 40.0561C83.9665 40.7442 83.7773 41.5381 83.8237 42.3361V45.6961C83.8237 46.1881 84.3553 46.7401 84.8692 46.4701C87.26 45.2143 89.9123 44.5589 92.6038 44.5589C95.2953 44.5589 97.9477 45.2143 100.338 46.4701C100.888 46.7641 101.413 46.2001 101.413 45.7141V42.1741C101.409 41.9079 101.335 41.6477 101.199 41.42C101.063 41.1923 100.87 41.0054 100.64 40.8781C98.0639 39.5315 95.1801 38.9099 92.2878 39.0781L99.8718 28.0801C100.575 27.0901 100.97 26.4661 100.97 25.9921V23.0941C100.972 22.9823 100.951 22.8713 100.91 22.7679C100.868 22.6644 100.806 22.5706 100.728 22.4921C100.649 22.4136 100.556 22.3521 100.454 22.3112C100.351 22.2703 100.242 22.2508 100.132 22.2541H85.4894C85.3801 22.2516 85.2715 22.2717 85.1701 22.313C85.0687 22.3544 84.9765 22.4162 84.8993 22.4947C84.822 22.5732 84.7612 22.6667 84.7205 22.7698C84.6798 22.8728 84.66 22.9831 84.6625 23.0941V26.4001ZM31.2553 47.1361C31.3657 47.1393 31.4755 47.1202 31.5785 47.0798C31.6816 47.0395 31.7756 46.9788 31.8553 46.9012C31.935 46.8235 31.9987 46.7306 32.0428 46.6278C32.0868 46.5249 32.1102 46.4142 32.1118 46.3021V33.9901C32.1177 31.3021 31.9818 27.6001 35.195 27.6001C38.4081 27.6001 37.9356 31.4101 37.9356 33.9961V46.3081C37.9385 46.5237 38.0229 46.7299 38.1714 46.884C38.3198 47.0382 38.5209 47.1284 38.733 47.1361H43.2043C43.3144 47.1385 43.424 47.1188 43.5266 47.0782C43.6293 47.0376 43.7231 46.9768 43.8026 46.8993C43.8821 46.8219 43.9459 46.7293 43.9902 46.6268C44.0344 46.5243 44.0584 46.414 44.0607 46.3021V33.9901C44.0607 32.6701 44.0194 30.7201 44.4742 29.5501C44.6849 29.0016 45.0498 28.5283 45.5235 28.189C45.9972 27.8497 46.5587 27.6595 47.1381 27.6421C48.4257 27.6421 49.4239 28.0801 49.7547 29.6461C49.9673 30.5701 49.8846 33.0181 49.8846 33.9901V46.3081C49.8875 46.5237 49.9719 46.7299 50.1203 46.884C50.2688 47.0382 50.4699 47.1284 50.682 47.1361H55.1296C55.3527 47.1409 55.5685 47.056 55.7301 46.8997C55.8916 46.7435 55.9858 46.5286 55.992 46.3021V31.6501C55.992 29.1541 56.2755 26.3161 54.8638 24.3661C54.1429 23.4405 53.1936 22.7254 52.1124 22.2934C51.0312 21.8614 49.8566 21.7279 48.7081 21.9064C47.5596 22.085 46.4782 22.5694 45.5737 23.3102C44.6693 24.051 43.974 25.0219 43.5587 26.1241C42.3065 23.1961 40.564 21.8281 37.7761 21.8281C34.9883 21.8281 32.9918 23.1961 31.9168 26.1241H31.8341V23.1241C31.8167 22.9149 31.7239 22.7196 31.5735 22.5757C31.4231 22.4317 31.2256 22.3493 31.019 22.3441H26.8844C26.6614 22.3393 26.4456 22.4242 26.284 22.5805C26.1224 22.7367 26.0283 22.9516 26.0221 23.1781V46.3741C26.0419 46.5775 26.1336 46.7668 26.2802 46.9069C26.4268 47.047 26.6184 47.1284 26.8195 47.1361H31.273H31.2553ZM113.575 21.8221C107.131 21.8221 103.534 27.4441 103.534 34.6801C103.534 41.9161 107.078 47.6281 113.575 47.6281C119.812 47.6281 123.764 42.0061 123.764 34.9201C123.764 27.6001 120.185 21.8221 113.575 21.8221ZM113.575 42.8221C110.084 42.8221 110.126 36.7621 110.126 33.9241C110.126 31.0861 110.332 26.5441 113.616 26.5441C115.034 26.5441 116.026 27.1801 116.528 28.7941C117.044 30.8023 117.268 32.8761 117.196 34.9501C117.196 37.9501 117.036 42.8401 113.575 42.8401V42.8221ZM132.334 47.1361C132.558 47.141 132.774 47.0562 132.937 46.9001C133.099 46.744 133.195 46.5292 133.203 46.3021V33.7981C133.122 32.2972 133.364 30.7966 133.911 29.4001C134.119 28.8719 134.473 28.4159 134.93 28.087C135.386 27.7581 135.927 27.5702 136.487 27.5461C139.57 27.5461 139.275 31.2541 139.275 33.7981V46.3981C139.3 46.5972 139.394 46.7808 139.54 46.916C139.686 47.0512 139.874 47.1292 140.072 47.1361H144.537C144.742 47.1398 144.942 47.0676 145.098 46.9329C145.255 46.7982 145.358 46.6102 145.388 46.4041V31.8001C145.388 29.5561 145.388 26.4001 144.207 24.5701C143.654 23.6898 142.882 22.9733 141.969 22.493C141.057 22.0126 140.035 21.7853 139.009 21.8341C135.931 21.8341 134.183 23.3461 132.937 26.5201H132.854V22.9621C132.808 22.7819 132.707 22.6215 132.564 22.5048C132.422 22.388 132.246 22.3211 132.063 22.3141H127.928C127.72 22.3124 127.518 22.3885 127.361 22.5278C127.204 22.6672 127.104 22.8601 127.077 23.0701V46.3081C127.08 46.5237 127.165 46.7299 127.313 46.884C127.462 47.0382 127.663 47.1284 127.875 47.1361H132.311H132.334ZM80.9236 42.8821C80.1085 41.7361 79.2402 40.8121 79.2402 38.6821V31.6441C79.2402 28.6441 79.447 25.9081 77.2792 23.8441C75.5723 22.2001 72.7371 21.6001 70.5753 21.6001C66.3344 21.6001 61.6032 23.2081 60.6109 28.5301C60.5898 28.6369 60.5905 28.747 60.6132 28.8534C60.6358 28.9599 60.6798 29.0605 60.7425 29.1489C60.8051 29.2373 60.885 29.3116 60.9772 29.3673C61.0695 29.4229 61.172 29.4586 61.2784 29.4721L65.5961 29.9521C65.7959 29.9167 65.9789 29.8162 66.1175 29.6657C66.256 29.5152 66.3425 29.323 66.3639 29.1181C66.7419 27.2821 68.2481 26.4001 69.9492 26.4001C70.4304 26.378 70.9097 26.4757 71.3451 26.6849C71.7806 26.8941 72.1591 27.2083 72.4477 27.6001C73.0738 28.5301 72.9911 29.8021 72.9911 30.8821V31.4821C70.4099 31.7761 67.0314 31.9681 64.6156 33.0481C63.1762 33.6384 61.9506 34.6645 61.1052 35.987C60.2598 37.3095 59.8356 38.8642 59.8903 40.4401C59.8903 45.1441 62.8082 47.4961 66.5529 47.4961C69.7247 47.4961 71.4554 46.7341 73.9007 44.2081C74.565 45.3571 75.4296 46.3737 76.4523 47.2081C76.6167 47.3026 76.8058 47.3435 76.9938 47.3253C77.1819 47.3071 77.3599 47.2305 77.5037 47.1061C78.3897 46.2961 80.0081 44.8681 80.9177 44.1061C80.9988 44.0271 81.0635 43.9323 81.1078 43.8274C81.1522 43.7224 81.1753 43.6095 81.1758 43.4954C81.1764 43.3812 81.1544 43.2681 81.111 43.1627C81.0677 43.0574 81.004 42.9619 80.9236 42.8821ZM72.9911 36.0481C72.9911 37.8121 73.0324 39.2761 72.1582 40.8481C71.8728 41.4396 71.4359 41.9423 70.8935 42.3033C70.351 42.6643 69.7229 42.8705 69.075 42.9001C67.3621 42.9001 66.3639 41.5801 66.3639 39.6241C66.3639 35.7721 69.7661 35.0701 72.9911 35.0701V36.0481ZM22.5313 42.8821C21.7162 41.7361 20.8479 40.8121 20.8479 38.6821V31.6441C20.8479 28.6441 21.0606 25.9081 18.8929 23.8441C17.2154 22.2001 14.3507 21.6001 12.183 21.6001C7.94801 21.6001 3.21685 23.2081 2.22455 28.5301C2.20339 28.6364 2.20397 28.7461 2.22624 28.8522C2.24852 28.9583 2.29202 29.0586 2.35405 29.1469C2.41608 29.2353 2.49531 29.3097 2.58683 29.3656C2.67835 29.4216 2.78021 29.4578 2.88608 29.4721L7.20378 29.9521C7.40349 29.9152 7.58634 29.8143 7.72556 29.6642C7.86478 29.5142 7.95308 29.3228 7.97754 29.1181C8.35556 27.2821 9.86173 26.4001 11.5569 26.4001C12.0381 26.378 12.5174 26.4757 12.9529 26.6849C13.3884 26.8941 13.7669 27.2083 14.0554 27.6001C14.6815 28.5301 14.5988 29.8021 14.5988 30.8821V31.4821C12.0176 31.7761 8.64498 31.9681 6.22329 33.0481C4.7839 33.6384 3.55828 34.6645 2.7129 35.987C1.86752 37.3095 1.44336 38.8642 1.49804 40.4401C1.49804 45.1441 4.41588 47.4961 8.16655 47.4961C11.3325 47.4961 13.0631 46.7341 15.5084 44.2081C16.1745 45.3558 17.0389 46.372 18.06 47.2081C18.2244 47.3026 18.4135 47.3435 18.6015 47.3253C18.7896 47.3071 18.9676 47.2305 19.1114 47.1061C19.9974 46.2961 21.6158 44.8681 22.5254 44.1061C22.6073 44.0275 22.6726 43.9329 22.7174 43.8279C22.7622 43.7229 22.7856 43.6098 22.7862 43.4954C22.7867 43.381 22.7644 43.2676 22.7206 43.1622C22.6768 43.0568 22.6124 42.9615 22.5313 42.8821ZM14.5988 36.0481C14.5988 37.8121 14.6401 39.2761 13.766 40.8481C13.4805 41.4396 13.0436 41.9423 12.5012 42.3033C11.9587 42.6643 11.3306 42.8705 10.6827 42.9001C8.97575 42.9001 7.97163 41.5801 7.97163 39.6241C7.97163 35.7721 11.3797 35.0701 14.5988 35.0701V36.0481Z" fill="#898989"/>
</svg>
