<svg width="16" height="16" viewBox="0 0 16 16" fill="none" xmlns="http://www.w3.org/2000/svg">
<rect x="0.5" y="0.5" width="15" height="15" rx="1.5" stroke="#F47F13"/>
<path d="M5.74276 10.6484L6.08117 10.9595L6.41958 10.6484L13.0217 4.57835L12.6869 4.21417L13.0217 4.57835C13.1397 4.46987 13.3323 4.4818 13.4222 4.56666L13.4221 4.56678L13.4315 4.57527C13.4562 4.5974 13.4733 4.6215 13.4841 4.6449C13.4949 4.66816 13.4998 4.6914 13.5 4.71367C13.5002 4.73594 13.4956 4.75914 13.4853 4.78236C13.4749 4.80565 13.4584 4.82971 13.4343 4.85194C13.4343 4.852 13.4342 4.85206 13.4341 4.85213L6.28775 11.4226C6.17544 11.5258 5.97913 11.5258 5.86681 11.4226L2.56576 8.38755L2.23181 8.75077L2.56576 8.38755C2.54185 8.36556 2.52534 8.34176 2.51496 8.31871C2.50464 8.2958 2.5 8.27292 2.5 8.25098C2.5 8.20852 2.51797 8.15836 2.56576 8.11442C2.61497 8.06918 2.69004 8.03731 2.77623 8.03731C2.86242 8.03731 2.93749 8.06918 2.9867 8.11442L5.74276 10.6484Z" fill="#101010" stroke="#F47F13"/>
</svg>
