<svg width="178" height="72" viewBox="0 0 178 72" fill="none" xmlns="http://www.w3.org/2000/svg">
<path d="M3.42641 48.096H12.3292C19.7126 48.096 26.3007 43.722 26.3007 35.61C26.3007 26.436 19.6058 23.01 11.5992 23.01H3.42641V48.096ZM8.89274 28.098H12.1334C16.751 28.098 20.6623 30.402 20.6623 35.34C20.6623 41.046 16.84 43.002 11.7594 43.002H8.89274V28.098ZM27.5293 39.474C27.5293 44.982 31.7314 48.474 36.99 48.474C42.2486 48.474 46.4864 44.928 46.4864 39.474C46.4864 34.02 42.2842 30.474 36.99 30.474C31.6958 30.474 27.5293 34.02 27.5293 39.474ZM32.782 39.474C32.6945 38.4138 33.0245 37.3615 33.7002 36.5459C34.3759 35.7302 35.3427 35.2171 36.3906 35.118H36.9841C37.506 35.0864 38.029 35.1591 38.5231 35.332C39.0173 35.5049 39.4728 35.7746 39.8636 36.1257C40.2545 36.4768 40.573 36.9024 40.801 37.3781C41.029 37.8538 41.1619 38.3703 41.1922 38.898C41.2083 39.0977 41.2083 39.2983 41.1922 39.498C41.2361 40.0268 41.1765 40.5591 41.0168 41.0645C40.8571 41.57 40.6004 42.0387 40.2614 42.4438C39.9224 42.8489 39.5077 43.1825 39.0411 43.4255C38.5745 43.6685 38.0651 43.8161 37.542 43.86C37.3582 43.872 37.1738 43.872 36.99 43.86C36.4678 43.8917 35.9445 43.819 35.45 43.6462C34.9556 43.4733 34.4997 43.2037 34.1083 42.8526C33.717 42.5016 33.3979 42.0761 33.1693 41.6003C32.9407 41.1246 32.8071 40.608 32.776 40.08C32.7637 39.8802 32.7637 39.6798 32.776 39.48L32.782 39.474ZM63.4908 32.754C61.8466 31.2066 59.6643 30.3785 57.419 30.45C52.1486 30.45 47.9583 33.996 47.9583 39.45C47.9583 44.904 52.1664 48.45 57.419 48.45C59.6643 48.5215 61.8466 47.6934 63.4908 46.146L60.0127 42.408C59.7079 42.8049 59.3198 43.1285 58.8765 43.3557C58.4332 43.5829 57.9456 43.708 57.4487 43.722C56.9265 43.7537 56.4032 43.681 55.9087 43.5082C55.4143 43.3353 54.9583 43.0657 54.567 42.7146C54.1757 42.3636 53.8566 41.9381 53.628 41.4623C53.3994 40.9866 53.2657 40.47 53.2347 39.942C53.2193 39.7423 53.2193 39.5417 53.2347 39.342C53.146 38.2783 53.4788 37.2224 54.1599 36.4067C54.8411 35.591 55.8148 35.0821 56.8671 34.992C57.0646 34.9757 57.2631 34.9757 57.4606 34.992C57.9589 34.9982 58.4492 35.1199 58.8937 35.3477C59.3382 35.5755 59.7251 35.9034 60.0246 36.306L63.5026 32.628L63.4908 32.754ZM81.4507 30.924H76.1565V39.504C76.1565 41.748 75.7411 43.902 72.999 43.902C70.2569 43.902 70.2747 41.316 70.2747 39.414V30.924H65.0042V40.356C65.0042 44.964 65.9836 48.51 71.3252 48.51C72.3257 48.5506 73.3181 48.3145 74.1956 47.8271C75.0731 47.3397 75.8024 46.6195 76.3049 45.744V48.078H81.427V30.822L81.4507 30.924ZM82.798 46.614H91.1311V48.348H82.798V46.614ZM95.0067 46.614H103.34V48.348H95.0067V46.614ZM107.239 46.614H115.572V48.348H107.239V46.614ZM119.454 46.614H127.787V48.348H119.454V46.614ZM131.669 46.614H140.002V48.348H131.669V46.614ZM143.877 46.614H152.21V48.348H143.877V46.614ZM156.092 46.614H164.425V48.348H156.092V46.614ZM168.307 46.614H176.64V48.348H168.307V46.614Z" fill="#898989"/>
<path d="M129.372 44.0401C128.47 43.1221 137.605 35.7481 140.358 36.1201C139.308 39.3241 130.269 44.9521 129.372 44.0401ZM140.121 47.1061C142.139 43.4886 143.719 39.639 144.828 35.6401C144.828 33.5641 142.964 32.4661 140.952 32.4661C134.334 32.4661 123.657 43.8661 121.407 43.8661C118.843 43.8661 122.767 38.4061 122.767 36.2641C122.767 34.8421 121.508 33.3781 120.505 33.3781C118.553 33.3781 112.374 39.3781 108.332 40.6801C109.104 39.4417 109.572 38.0346 109.697 36.5761C109.697 29.2741 89.2207 32.0881 89.2207 27.9601C89.2207 24.2761 102.029 17.9281 109.531 17.9281C110.587 17.9281 117.496 18.3961 117.496 20.8201C117.496 21.7321 116.018 22.0201 116.018 22.9441C116.018 23.8681 116.772 24.0001 117.704 24.0001C118.024 23.9773 118.336 23.8909 118.623 23.7458C118.91 23.6007 119.166 23.3997 119.376 23.1545C119.586 22.9092 119.747 22.6245 119.848 22.3166C119.949 22.0087 119.989 21.6837 119.965 21.3601V21.2641C119.965 15.0661 114.623 13.7761 110.338 13.7761C99.2512 13.7761 86.1166 23.5081 86.1166 27.9241C86.1166 33.6961 104.771 32.6341 104.771 37.8121C104.771 44.0401 84.7693 49.6681 84.7693 51.1921C84.7693 52.7161 85.8376 52.5721 87.0365 52.5721C95.1618 52.5721 116.511 38.8801 118.321 37.0501C118.469 40.2421 117.134 43.2781 117.134 44.6401C117.134 46.0021 118.173 47.8561 119.698 47.8561C121.223 47.8561 123.419 45.6001 126.737 43.8001C126.589 44.8621 127.491 46.5361 128.69 46.5361C131.254 46.5361 139.053 40.1461 140.56 39.0541C140.048 41.7583 138.929 44.3077 137.29 46.5061C136.453 46.2826 135.591 46.1716 134.726 46.1761C131.61 46.2001 123.045 55.3681 123.045 59.6461C123.045 61.3261 123.948 63.0001 125.604 63.0001C127.9 63.0001 136.192 56.1001 139.255 49.0681C140.602 49.2181 142.816 50.2321 142.816 49.1581C142.816 48.0841 141.338 47.3581 140.18 47.0581L140.121 47.1061ZM126.31 59.3641C125.776 59.3641 125.449 59.1241 125.449 57.8641C125.449 53.9581 133.503 48.4201 136.299 48.4201C134.673 52.1221 127.794 59.3641 126.31 59.3641ZM123.704 24.9421C123.704 24.5657 123.815 24.1977 124.022 23.8848C124.229 23.5719 124.523 23.3281 124.867 23.1843C125.211 23.0406 125.59 23.0032 125.955 23.0771C126.32 23.151 126.655 23.3327 126.918 23.5993C127.181 23.8659 127.36 24.2054 127.432 24.5748C127.504 24.9441 127.466 25.3267 127.322 25.6742C127.179 26.0216 126.937 26.3182 126.627 26.5265C126.317 26.7348 125.952 26.8453 125.58 26.8441C125.333 26.8441 125.089 26.7949 124.861 26.6992C124.633 26.6036 124.426 26.4634 124.251 26.2867C124.077 26.11 123.939 25.9003 123.845 25.6695C123.751 25.4388 123.703 25.1916 123.704 24.9421ZM148.87 39.6841C147.819 41.0581 145.113 44.1721 145.113 45.4621C145.113 46.7521 145.706 47.4361 146.59 47.4361C148.84 47.4361 156.211 38.4361 159.678 38.4361C162.242 38.4361 158.034 47.7181 163.601 47.7181C165.613 47.7181 172.349 43.2241 172.349 40.6081C172.349 40.1461 171.874 39.3481 171.269 39.3481C170.913 39.3481 166.313 44.9761 164.355 44.9761C162.699 44.9761 164.355 41.4901 164.355 39.1981C164.355 36.9061 163.998 34.8001 161.624 34.8001C158.467 34.8001 153.909 38.8981 152.906 39.5101C153.269 38.9152 153.474 38.235 153.499 37.5361C153.395 36.8615 153.072 36.241 152.581 35.7719C152.09 35.3028 151.459 35.0116 150.787 34.9441C149.754 34.9441 144.187 37.8361 144.187 41.5441C144.187 42.4561 147.487 39.2221 148.834 39.6901L148.87 39.6841ZM172.053 56.9101H172.705V55.4101H173.18L174.1 56.9101H174.777L173.863 55.4101C173.976 55.4117 174.087 55.3907 174.192 55.3484C174.297 55.3061 174.392 55.2432 174.473 55.1635C174.553 55.0837 174.617 54.9886 174.661 54.8837C174.705 54.7788 174.729 54.6661 174.729 54.5521C174.732 54.5102 174.732 54.4681 174.729 54.4261C174.729 53.7361 174.332 53.3461 173.489 53.3461H172.124V56.9461L172.053 56.9101ZM172.777 53.9461H173.251C173.649 53.9461 174.112 53.9461 174.112 54.4441C174.112 54.9421 173.667 54.9361 173.251 54.9361H172.777V53.9461ZM170.207 55.2001C170.197 55.8185 170.37 56.4259 170.702 56.9452C171.034 57.4646 171.511 57.8727 172.073 58.1178C172.635 58.363 173.256 58.4341 173.857 58.3224C174.459 58.2106 175.015 57.9209 175.453 57.4899C175.892 57.0589 176.195 56.506 176.323 55.9011C176.45 55.2963 176.398 54.6667 176.172 54.0921C175.945 53.5174 175.556 53.0235 175.052 52.6728C174.548 52.3222 173.952 52.1305 173.34 52.1221C172.529 52.122 171.749 52.4448 171.171 53.0207C170.592 53.5966 170.261 54.3794 170.248 55.2001H170.207ZM170.794 55.2001C171.127 54.8565 171.58 54.6589 172.055 54.6502C172.531 54.6414 172.991 54.8221 173.335 55.1533C173.68 55.4845 173.882 55.9395 173.898 56.42C173.913 56.9005 173.741 57.3679 173.418 57.7211C173.096 58.0744 172.649 58.2851 172.174 58.3078C171.699 58.3305 171.234 58.1633 170.88 57.8424C170.526 57.5215 170.311 57.0726 170.281 56.5928C170.252 56.1129 170.411 55.6407 170.723 55.2781V55.2001" fill="#898989"/>
</svg>
