<svg width="279" height="384" viewBox="0 0 279 384" fill="none" xmlns="http://www.w3.org/2000/svg">
<g opacity="0.2">
<circle cx="87" cy="171" r="3" fill="#6D6D6D"/>
<circle cx="129" cy="171" r="3" fill="#6D6D6D"/>
<circle cx="66" cy="171" r="3" fill="#6D6D6D"/>
<circle cx="108" cy="171" r="3" fill="#6D6D6D"/>
<circle cx="150" cy="171" r="3" fill="#6D6D6D"/>
<circle cx="87" cy="213" r="3" fill="#6D6D6D"/>
<circle cx="129" cy="213" r="3" fill="#6D6D6D"/>
<circle cx="66" cy="213" r="3" fill="#6D6D6D"/>
<circle cx="108" cy="213" r="3" fill="#6D6D6D"/>
<circle cx="150" cy="213" r="3" fill="#6D6D6D"/>
<circle cx="87" cy="192" r="3" fill="#6D6D6D"/>
<circle cx="129" cy="192" r="3" fill="#6D6D6D"/>
<circle cx="66" cy="192" r="3" fill="#6D6D6D"/>
<circle cx="108" cy="192" r="3" fill="#6D6D6D"/>
<circle cx="150" cy="192" r="3" fill="#6D6D6D"/>
<circle cx="87" cy="234" r="3" fill="#6D6D6D"/>
<circle cx="129" cy="234" r="3" fill="#6D6D6D"/>
<circle cx="66" cy="234" r="3" fill="#6D6D6D"/>
<circle cx="108" cy="234" r="3" fill="#6D6D6D"/>
<circle cx="150" cy="234" r="3" fill="#6D6D6D"/>
<circle cx="87" cy="255" r="3" fill="#6D6D6D"/>
<circle cx="129" cy="255" r="3" fill="#6D6D6D"/>
<circle cx="66" cy="255" r="3" fill="#6D6D6D"/>
<circle cx="108" cy="255" r="3" fill="#6D6D6D"/>
<circle cx="150" cy="255" r="3" fill="#6D6D6D"/>
<circle cx="87" cy="297" r="3" fill="#6D6D6D"/>
<circle cx="129" cy="297" r="3" fill="#6D6D6D"/>
<circle cx="66" cy="297" r="3" fill="#6D6D6D"/>
<circle cx="108" cy="297" r="3" fill="#6D6D6D"/>
<circle cx="150" cy="297" r="3" fill="#6D6D6D"/>
<circle cx="87" cy="276" r="3" fill="#6D6D6D"/>
<circle cx="129" cy="276" r="3" fill="#6D6D6D"/>
<circle cx="66" cy="276" r="3" fill="#6D6D6D"/>
<circle cx="108" cy="276" r="3" fill="#6D6D6D"/>
<circle cx="150" cy="276" r="3" fill="#6D6D6D"/>
<circle cx="171" cy="171" r="3" fill="#6D6D6D"/>
<circle cx="213" cy="171" r="3" fill="#6D6D6D"/>
<circle cx="255" cy="171" r="3" fill="#6D6D6D"/>
<circle cx="192" cy="171" r="3" fill="#6D6D6D"/>
<circle cx="234" cy="171" r="3" fill="#6D6D6D"/>
<circle cx="276" cy="171" r="3" fill="#6D6D6D"/>
<circle cx="171" cy="213" r="3" fill="#6D6D6D"/>
<circle cx="213" cy="213" r="3" fill="#6D6D6D"/>
<circle cx="255" cy="213" r="3" fill="#6D6D6D"/>
<circle cx="192" cy="213" r="3" fill="#6D6D6D"/>
<circle cx="234" cy="213" r="3" fill="#6D6D6D"/>
<circle cx="276" cy="213" r="3" fill="#6D6D6D"/>
<circle cx="171" cy="192" r="3" fill="#6D6D6D"/>
<circle cx="213" cy="192" r="3" fill="#6D6D6D"/>
<circle cx="255" cy="192" r="3" fill="#6D6D6D"/>
<circle cx="192" cy="192" r="3" fill="#6D6D6D"/>
<circle cx="234" cy="192" r="3" fill="#6D6D6D"/>
<circle cx="276" cy="192" r="3" fill="#6D6D6D"/>
<circle cx="171" cy="234" r="3" fill="#6D6D6D"/>
<circle cx="213" cy="234" r="3" fill="#6D6D6D"/>
<circle cx="255" cy="234" r="3" fill="#6D6D6D"/>
<circle cx="192" cy="234" r="3" fill="#6D6D6D"/>
<circle cx="234" cy="234" r="3" fill="#6D6D6D"/>
<circle cx="276" cy="234" r="3" fill="#6D6D6D"/>
<circle cx="171" cy="255" r="3" fill="#6D6D6D"/>
<circle cx="213" cy="255" r="3" fill="#6D6D6D"/>
<circle cx="255" cy="255" r="3" fill="#6D6D6D"/>
<circle cx="192" cy="255" r="3" fill="#6D6D6D"/>
<circle cx="234" cy="255" r="3" fill="#6D6D6D"/>
<circle cx="276" cy="255" r="3" fill="#6D6D6D"/>
<circle cx="171" cy="297" r="3" fill="#6D6D6D"/>
<circle cx="213" cy="297" r="3" fill="#6D6D6D"/>
<circle cx="255" cy="297" r="3" fill="#6D6D6D"/>
<circle cx="192" cy="297" r="3" fill="#6D6D6D"/>
<circle cx="234" cy="297" r="3" fill="#6D6D6D"/>
<circle cx="276" cy="297" r="3" fill="#6D6D6D"/>
<circle cx="171" cy="276" r="3" fill="#6D6D6D"/>
<circle cx="213" cy="276" r="3" fill="#6D6D6D"/>
<circle cx="255" cy="276" r="3" fill="#6D6D6D"/>
<circle cx="192" cy="276" r="3" fill="#6D6D6D"/>
<circle cx="234" cy="276" r="3" fill="#6D6D6D"/>
<circle cx="276" cy="276" r="3" fill="#6D6D6D"/>
<circle cx="87" cy="3" r="3" fill="#6D6D6D"/>
<circle cx="129" cy="3" r="3" fill="#6D6D6D"/>
<circle cx="66" cy="3" r="3" fill="#6D6D6D"/>
<circle cx="108" cy="3" r="3" fill="#6D6D6D"/>
<circle cx="150" cy="3" r="3" fill="#6D6D6D"/>
<circle cx="87" cy="45" r="3" fill="#6D6D6D"/>
<circle cx="129" cy="45" r="3" fill="#6D6D6D"/>
<circle cx="66" cy="45" r="3" fill="#6D6D6D"/>
<circle cx="108" cy="45" r="3" fill="#6D6D6D"/>
<circle cx="150" cy="45" r="3" fill="#6D6D6D"/>
<circle cx="87" cy="24" r="3" fill="#6D6D6D"/>
<circle cx="129" cy="24" r="3" fill="#6D6D6D"/>
<circle cx="66" cy="24" r="3" fill="#6D6D6D"/>
<circle cx="108" cy="24" r="3" fill="#6D6D6D"/>
<circle cx="150" cy="24" r="3" fill="#6D6D6D"/>
<circle cx="87" cy="66" r="3" fill="#6D6D6D"/>
<circle cx="129" cy="66" r="3" fill="#6D6D6D"/>
<circle cx="66" cy="66" r="3" fill="#6D6D6D"/>
<circle cx="108" cy="66" r="3" fill="#6D6D6D"/>
<circle cx="150" cy="66" r="3" fill="#6D6D6D"/>
<circle cx="87" cy="87" r="3" fill="#6D6D6D"/>
<circle cx="129" cy="87" r="3" fill="#6D6D6D"/>
<circle cx="66" cy="87" r="3" fill="#6D6D6D"/>
<circle cx="108" cy="87" r="3" fill="#6D6D6D"/>
<circle cx="150" cy="87" r="3" fill="#6D6D6D"/>
<circle cx="87" cy="129" r="3" fill="#6D6D6D"/>
<circle cx="129" cy="129" r="3" fill="#6D6D6D"/>
<circle cx="66" cy="129" r="3" fill="#6D6D6D"/>
<circle cx="108" cy="129" r="3" fill="#6D6D6D"/>
<circle cx="150" cy="129" r="3" fill="#6D6D6D"/>
<circle cx="87" cy="108" r="3" fill="#6D6D6D"/>
<circle cx="129" cy="108" r="3" fill="#6D6D6D"/>
<circle cx="66" cy="108" r="3" fill="#6D6D6D"/>
<circle cx="108" cy="108" r="3" fill="#6D6D6D"/>
<circle cx="150" cy="108" r="3" fill="#6D6D6D"/>
<circle cx="45" cy="171" r="3" fill="#6D6D6D"/>
<circle cx="45" cy="213" r="3" fill="#6D6D6D"/>
<circle cx="45" cy="192" r="3" fill="#6D6D6D"/>
<circle cx="45" cy="234" r="3" fill="#6D6D6D"/>
<circle cx="45" cy="255" r="3" fill="#6D6D6D"/>
<circle cx="45" cy="297" r="3" fill="#6D6D6D"/>
<circle cx="45" cy="276" r="3" fill="#6D6D6D"/>
<circle cx="45" cy="3" r="3" fill="#6D6D6D"/>
<circle cx="45" cy="45" r="3" fill="#6D6D6D"/>
<circle cx="45" cy="24" r="3" fill="#6D6D6D"/>
<circle cx="45" cy="66" r="3" fill="#6D6D6D"/>
<circle cx="45" cy="87" r="3" fill="#6D6D6D"/>
<circle cx="45" cy="129" r="3" fill="#6D6D6D"/>
<circle cx="45" cy="108" r="3" fill="#6D6D6D"/>
<circle cx="45" cy="150" r="3" fill="#6D6D6D"/>
<circle cx="24" cy="171" r="3" fill="#6D6D6D"/>
<circle cx="24" cy="213" r="3" fill="#6D6D6D"/>
<circle cx="24" cy="192" r="3" fill="#6D6D6D"/>
<circle cx="24" cy="234" r="3" fill="#6D6D6D"/>
<circle cx="24" cy="255" r="3" fill="#6D6D6D"/>
<circle cx="24" cy="297" r="3" fill="#6D6D6D"/>
<circle cx="24" cy="276" r="3" fill="#6D6D6D"/>
<circle cx="24" cy="3" r="3" fill="#6D6D6D"/>
<circle cx="24" cy="45" r="3" fill="#6D6D6D"/>
<circle cx="24" cy="24" r="3" fill="#6D6D6D"/>
<circle cx="24" cy="66" r="3" fill="#6D6D6D"/>
<circle cx="24" cy="87" r="3" fill="#6D6D6D"/>
<circle cx="24" cy="129" r="3" fill="#6D6D6D"/>
<circle cx="24" cy="108" r="3" fill="#6D6D6D"/>
<circle cx="24" cy="150" r="3" fill="#6D6D6D"/>
<circle cx="3" cy="171" r="3" fill="#6D6D6D"/>
<circle cx="3" cy="213" r="3" fill="#6D6D6D"/>
<circle cx="3" cy="192" r="3" fill="#6D6D6D"/>
<circle cx="3" cy="234" r="3" fill="#6D6D6D"/>
<circle cx="3" cy="255" r="3" fill="#6D6D6D"/>
<circle cx="3" cy="297" r="3" fill="#6D6D6D"/>
<circle cx="3" cy="276" r="3" fill="#6D6D6D"/>
<circle cx="87" cy="318" r="3" fill="#6D6D6D"/>
<circle cx="129" cy="318" r="3" fill="#6D6D6D"/>
<circle cx="66" cy="318" r="3" fill="#6D6D6D"/>
<circle cx="108" cy="318" r="3" fill="#6D6D6D"/>
<circle cx="150" cy="318" r="3" fill="#6D6D6D"/>
<circle cx="171" cy="318" r="3" fill="#6D6D6D"/>
<circle cx="213" cy="318" r="3" fill="#6D6D6D"/>
<circle cx="255" cy="318" r="3" fill="#6D6D6D"/>
<circle cx="192" cy="318" r="3" fill="#6D6D6D"/>
<circle cx="234" cy="318" r="3" fill="#6D6D6D"/>
<circle cx="276" cy="318" r="3" fill="#6D6D6D"/>
<circle cx="45" cy="318" r="3" fill="#6D6D6D"/>
<circle cx="24" cy="318" r="3" fill="#6D6D6D"/>
<circle cx="3" cy="318" r="3" fill="#6D6D6D"/>
<circle cx="87" cy="339" r="3" fill="#6D6D6D"/>
<circle cx="129" cy="339" r="3" fill="#6D6D6D"/>
<circle cx="66" cy="339" r="3" fill="#6D6D6D"/>
<circle cx="108" cy="339" r="3" fill="#6D6D6D"/>
<circle cx="150" cy="339" r="3" fill="#6D6D6D"/>
<circle cx="171" cy="339" r="3" fill="#6D6D6D"/>
<circle cx="213" cy="339" r="3" fill="#6D6D6D"/>
<circle cx="255" cy="339" r="3" fill="#6D6D6D"/>
<circle cx="192" cy="339" r="3" fill="#6D6D6D"/>
<circle cx="234" cy="339" r="3" fill="#6D6D6D"/>
<circle cx="276" cy="339" r="3" fill="#6D6D6D"/>
<circle cx="45" cy="339" r="3" fill="#6D6D6D"/>
<circle cx="24" cy="339" r="3" fill="#6D6D6D"/>
<circle cx="3" cy="339" r="3" fill="#6D6D6D"/>
<circle cx="87" cy="360" r="3" fill="#6D6D6D"/>
<circle cx="129" cy="360" r="3" fill="#6D6D6D"/>
<circle cx="66" cy="360" r="3" fill="#6D6D6D"/>
<circle cx="108" cy="360" r="3" fill="#6D6D6D"/>
<circle cx="150" cy="360" r="3" fill="#6D6D6D"/>
<circle cx="171" cy="360" r="3" fill="#6D6D6D"/>
<circle cx="213" cy="360" r="3" fill="#6D6D6D"/>
<circle cx="255" cy="360" r="3" fill="#6D6D6D"/>
<circle cx="192" cy="360" r="3" fill="#6D6D6D"/>
<circle cx="234" cy="360" r="3" fill="#6D6D6D"/>
<circle cx="276" cy="360" r="3" fill="#6D6D6D"/>
<circle cx="45" cy="360" r="3" fill="#6D6D6D"/>
<circle cx="24" cy="360" r="3" fill="#6D6D6D"/>
<circle cx="3" cy="360" r="3" fill="#6D6D6D"/>
<circle cx="87" cy="381" r="3" fill="#6D6D6D"/>
<circle cx="129" cy="381" r="3" fill="#6D6D6D"/>
<circle cx="66" cy="381" r="3" fill="#6D6D6D"/>
<circle cx="108" cy="381" r="3" fill="#6D6D6D"/>
<circle cx="150" cy="381" r="3" fill="#6D6D6D"/>
<circle cx="171" cy="381" r="3" fill="#6D6D6D"/>
<circle cx="213" cy="381" r="3" fill="#6D6D6D"/>
<circle cx="255" cy="381" r="3" fill="#6D6D6D"/>
<circle cx="192" cy="381" r="3" fill="#6D6D6D"/>
<circle cx="234" cy="381" r="3" fill="#6D6D6D"/>
<circle cx="276" cy="381" r="3" fill="#6D6D6D"/>
<circle cx="45" cy="381" r="3" fill="#6D6D6D"/>
<circle cx="24" cy="381" r="3" fill="#6D6D6D"/>
<circle cx="3" cy="381" r="3" fill="#6D6D6D"/>
<circle cx="3" cy="3" r="3" fill="#6D6D6D"/>
<circle cx="3" cy="45" r="3" fill="#6D6D6D"/>
<circle cx="3" cy="24" r="3" fill="#6D6D6D"/>
<circle cx="3" cy="66" r="3" fill="#6D6D6D"/>
<circle cx="3" cy="87" r="3" fill="#6D6D6D"/>
<circle cx="3" cy="129" r="3" fill="#6D6D6D"/>
<circle cx="3" cy="108" r="3" fill="#6D6D6D"/>
<circle cx="3" cy="150" r="3" fill="#6D6D6D"/>
<circle cx="87" cy="150" r="3" fill="#6D6D6D"/>
<circle cx="129" cy="150" r="3" fill="#6D6D6D"/>
<circle cx="66" cy="150" r="3" fill="#6D6D6D"/>
<circle cx="108" cy="150" r="3" fill="#6D6D6D"/>
<circle cx="150" cy="150" r="3" fill="#6D6D6D"/>
<circle cx="171" cy="3" r="3" fill="#6D6D6D"/>
<circle cx="213" cy="3" r="3" fill="#6D6D6D"/>
<circle cx="255" cy="3" r="3" fill="#6D6D6D"/>
<circle cx="192" cy="3" r="3" fill="#6D6D6D"/>
<circle cx="234" cy="3" r="3" fill="#6D6D6D"/>
<circle cx="276" cy="3" r="3" fill="#6D6D6D"/>
<circle cx="171" cy="45" r="3" fill="#6D6D6D"/>
<circle cx="213" cy="45" r="3" fill="#6D6D6D"/>
<circle cx="255" cy="45" r="3" fill="#6D6D6D"/>
<circle cx="192" cy="45" r="3" fill="#6D6D6D"/>
<circle cx="234" cy="45" r="3" fill="#6D6D6D"/>
<circle cx="276" cy="45" r="3" fill="#6D6D6D"/>
<circle cx="171" cy="24" r="3" fill="#6D6D6D"/>
<circle cx="213" cy="24" r="3" fill="#6D6D6D"/>
<circle cx="255" cy="24" r="3" fill="#6D6D6D"/>
<circle cx="192" cy="24" r="3" fill="#6D6D6D"/>
<circle cx="234" cy="24" r="3" fill="#6D6D6D"/>
<circle cx="276" cy="24" r="3" fill="#6D6D6D"/>
<circle cx="171" cy="66" r="3" fill="#6D6D6D"/>
<circle cx="213" cy="66" r="3" fill="#6D6D6D"/>
<circle cx="255" cy="66" r="3" fill="#6D6D6D"/>
<circle cx="192" cy="66" r="3" fill="#6D6D6D"/>
<circle cx="234" cy="66" r="3" fill="#6D6D6D"/>
<circle cx="276" cy="66" r="3" fill="#6D6D6D"/>
<circle cx="171" cy="87" r="3" fill="#6D6D6D"/>
<circle cx="213" cy="87" r="3" fill="#6D6D6D"/>
<circle cx="255" cy="87" r="3" fill="#6D6D6D"/>
<circle cx="192" cy="87" r="3" fill="#6D6D6D"/>
<circle cx="234" cy="87" r="3" fill="#6D6D6D"/>
<circle cx="276" cy="87" r="3" fill="#6D6D6D"/>
<circle cx="171" cy="129" r="3" fill="#6D6D6D"/>
<circle cx="213" cy="129" r="3" fill="#6D6D6D"/>
<circle cx="255" cy="129" r="3" fill="#6D6D6D"/>
<circle cx="192" cy="129" r="3" fill="#6D6D6D"/>
<circle cx="234" cy="129" r="3" fill="#6D6D6D"/>
<circle cx="276" cy="129" r="3" fill="#6D6D6D"/>
<circle cx="171" cy="108" r="3" fill="#6D6D6D"/>
<circle cx="213" cy="108" r="3" fill="#6D6D6D"/>
<circle cx="255" cy="108" r="3" fill="#6D6D6D"/>
<circle cx="192" cy="108" r="3" fill="#6D6D6D"/>
<circle cx="234" cy="108" r="3" fill="#6D6D6D"/>
<circle cx="276" cy="108" r="3" fill="#6D6D6D"/>
<circle cx="171" cy="150" r="3" fill="#6D6D6D"/>
<circle cx="213" cy="150" r="3" fill="#6D6D6D"/>
<circle cx="255" cy="150" r="3" fill="#6D6D6D"/>
<circle cx="192" cy="150" r="3" fill="#6D6D6D"/>
<circle cx="234" cy="150" r="3" fill="#6D6D6D"/>
<circle cx="276" cy="150" r="3" fill="#6D6D6D"/>
</g>
</svg>
