<svg width="174" height="26" viewBox="0 0 174 26" fill="none" xmlns="http://www.w3.org/2000/svg">
<path d="M17.89 12.556C19.2953 13.0093 20.3607 13.712 21.086 14.664C21.834 15.616 22.208 16.7947 22.208 18.2C22.208 20.308 21.3807 21.974 19.726 23.198C18.094 24.3993 15.7707 25 12.756 25H0.55V1.2H12.11C14.966 1.2 17.176 1.744 18.74 2.832C20.3267 3.89733 21.12 5.416 21.12 7.388C21.12 8.544 20.8367 9.564 20.27 10.448C19.726 11.332 18.9327 12.0347 17.89 12.556ZM7.18 10.72H11.464C13.368 10.72 14.32 9.938 14.32 8.374C14.32 6.81 13.368 6.028 11.464 6.028H7.18V10.72ZM12.484 20.172C14.4333 20.172 15.408 19.3447 15.408 17.69C15.408 16.0807 14.4333 15.276 12.484 15.276H7.18V20.172H12.484ZM25.8508 1.2H32.4808V15.174L42.3068 1.2H48.6308V25H42.0008V11.06L32.2088 25H25.8508V1.2ZM53.7414 1.2H73.6314V6.402H60.3714V10.244H66.5254C69.4041 10.244 71.6141 10.856 73.1554 12.08C74.6967 13.304 75.4674 15.0607 75.4674 17.35C75.4674 19.7527 74.6061 21.634 72.8834 22.994C71.1607 24.3313 68.7467 25 65.6414 25H53.7414V1.2ZM65.1994 20.172C66.3327 20.172 67.1941 19.9453 67.7834 19.492C68.3727 19.0387 68.6674 18.3927 68.6674 17.554C68.6674 15.8767 67.5114 15.038 65.1994 15.038H60.3714V20.172H65.1994ZM89.8226 1.2C91.9759 1.2 93.8459 1.56267 95.4326 2.288C97.0192 2.99067 98.2432 4.01067 99.1046 5.348C99.9659 6.66267 100.397 8.21533 100.397 10.006C100.397 11.7967 99.9659 13.3493 99.1046 14.664C98.2432 15.9787 97.0192 16.9987 95.4326 17.724C93.8459 18.4267 91.9759 18.778 89.8226 18.778H85.6746V25H78.9426V1.2H89.8226ZM89.4146 13.474C90.7972 13.474 91.8399 13.1793 92.5426 12.59C93.2452 11.978 93.5966 11.1167 93.5966 10.006C93.5966 8.89533 93.2452 8.034 92.5426 7.422C91.8399 6.81 90.7972 6.504 89.4146 6.504H85.6746V13.474H89.4146ZM115.475 25.476C112.959 25.476 110.692 24.9433 108.675 23.878C106.68 22.8127 105.105 21.3393 103.949 19.458C102.815 17.5767 102.249 15.4573 102.249 13.1C102.249 10.7427 102.815 8.62333 103.949 6.742C105.105 4.86067 106.68 3.38733 108.675 2.322C110.692 1.25666 112.959 0.723998 115.475 0.723998C117.991 0.723998 120.246 1.25666 122.241 2.322C124.258 3.38733 125.833 4.86067 126.967 6.742C128.123 8.62333 128.701 10.7427 128.701 13.1C128.701 15.4573 128.123 17.5767 126.967 19.458C125.833 21.3393 124.258 22.8127 122.241 23.878C120.246 24.9433 117.991 25.476 115.475 25.476ZM115.475 19.9C116.676 19.9 117.764 19.6167 118.739 19.05C119.713 18.4833 120.484 17.69 121.051 16.67C121.617 15.6273 121.901 14.4373 121.901 13.1C121.901 11.7627 121.617 10.584 121.051 9.564C120.484 8.52133 119.713 7.71667 118.739 7.15C117.764 6.58333 116.676 6.3 115.475 6.3C114.273 6.3 113.185 6.58333 112.211 7.15C111.236 7.71667 110.465 8.52133 109.899 9.564C109.332 10.584 109.049 11.7627 109.049 13.1C109.049 14.4373 109.332 15.6273 109.899 16.67C110.465 17.69 111.236 18.4833 112.211 19.05C113.185 19.6167 114.273 19.9 115.475 19.9ZM131.448 12.828H141.376V17.792H131.448V12.828ZM167.002 25L166.968 12.386L160.848 22.654H157.856L151.736 12.658V25H145.548V1.2H151.09L159.454 14.936L167.614 1.2H173.156L173.224 25H167.002Z" fill="#EB7B14"/>
</svg>
