<svg width="22" height="21" viewBox="0 0 22 21" fill="none" xmlns="http://www.w3.org/2000/svg">
<g opacity="0.6">
<path d="M15.2927 0H5.98343C2.82205 0 0.250061 2.57211 0.250061 5.73349V15.0428C0.250061 18.2043 2.82205 20.7763 5.98343 20.7763H15.2927C18.4543 20.7763 21.0263 18.2041 21.0263 15.0428V5.73349C21.0264 2.57211 18.4543 0 15.2927 0ZM19.1831 15.0428C19.1831 17.1878 17.4379 18.9329 15.2928 18.9329H5.98343C3.83849 18.933 2.09343 17.1878 2.09343 15.0428V5.73349C2.09343 3.58855 3.83849 1.84337 5.98343 1.84337H15.2927C17.4378 1.84337 19.1829 3.58855 19.1829 5.73349L19.1831 15.0428Z" fill="white"/>
<path d="M10.6386 5.03465C7.68658 5.03465 5.28504 7.43619 5.28504 10.3882C5.28504 13.34 7.68658 15.7414 10.6386 15.7414C13.5905 15.7414 15.9921 13.34 15.9921 10.3882C15.9921 7.43619 13.5905 5.03465 10.6386 5.03465ZM10.6386 13.8979C8.70314 13.8979 7.12841 12.3235 7.12841 10.388C7.12841 8.4525 8.70302 6.87789 10.6386 6.87789C12.5741 6.87789 14.1487 8.4525 14.1487 10.388C14.1487 12.3235 12.574 13.8979 10.6386 13.8979Z" fill="white"/>
<path d="M16.2168 3.4714C15.8616 3.4714 15.5127 3.61519 15.2619 3.86711C15.0099 4.11781 14.865 4.46682 14.865 4.82321C14.865 5.17849 15.01 5.52738 15.2619 5.7793C15.5126 6.03 15.8616 6.17501 16.2168 6.17501C16.5731 6.17501 16.9209 6.03 17.1728 5.7793C17.4248 5.52738 17.5686 5.17836 17.5686 4.82321C17.5686 4.46682 17.4248 4.11781 17.1728 3.86711C16.9222 3.61519 16.5731 3.4714 16.2168 3.4714Z" fill="white"/>
</g>
</svg>
