<svg width="178" height="72" viewBox="0 0 178 72" fill="none" xmlns="http://www.w3.org/2000/svg">
<g clip-path="url(#clip0)">
<path d="M21.3025 30.1141C23.4042 32.2441 25.12 35.7361 24.1345 37.8121C21.5044 43.362 1.89436 53.088 0.231992 51.408C-1.43038 49.728 8.19949 29.8981 13.6912 27.2401C15.7455 26.2441 19.1949 27.9841 21.3085 30.1081L21.3025 30.1141ZM31.6923 27.7741C31.348 26.4961 30.5049 25.2061 29.181 25.0501C26.8061 24.7741 23.0421 29.0281 23.3092 30.0421C23.5764 31.0561 28.8841 32.8321 30.873 31.3921C31.8942 30.6481 32.0604 29.0461 31.7042 27.7921L31.6923 27.7741ZM24.3423 15.9781C26.1234 16.4581 27.9045 17.6941 28.1123 19.5361C28.4982 22.9081 22.5612 28.2301 21.166 27.8521C19.7708 27.4741 17.295 19.9561 19.2899 17.1481C20.3229 15.6961 22.5434 15.4921 24.3185 15.9481L24.3423 15.9781ZM77.1106 35.9641L75.3295 35.6941C73.6612 35.4421 72.6935 34.8961 72.6935 33.8941C72.6935 32.7541 73.9521 32.0401 75.8163 32.0401C77.0211 32.0939 78.194 32.4485 79.2301 33.0721L79.432 33.1741C79.8185 33.3717 80.2658 33.4102 80.6799 33.2816C81.094 33.1529 81.4426 32.867 81.6524 32.4841L81.7949 32.2261C81.9095 32.0215 81.9815 31.7955 82.0067 31.5618C82.0318 31.3282 82.0095 31.0918 81.9411 30.8671C81.8728 30.6425 81.7598 30.4343 81.6091 30.2553C81.4584 30.0763 81.2731 29.9302 81.0647 29.8261C79.4587 28.9179 77.6562 28.4234 75.8163 28.3861C71.3517 28.3861 68.4722 30.5701 68.4722 34.0741C68.4722 36.9541 70.5205 38.754 74.4093 39.2941L76.1904 39.5221C78.0546 39.7921 78.9689 40.3501 78.9689 41.2321C78.9689 42.114 78.5296 43.1401 75.6323 43.1401C74.0339 43.1597 72.4623 42.7252 71.0964 41.886C70.8357 41.718 70.5329 41.6285 70.2237 41.628C69.937 41.6305 69.6556 41.7061 69.4055 41.8476C69.1554 41.9892 68.9446 42.1923 68.7928 42.4381L68.6919 42.6C68.5702 42.7998 68.4897 43.0223 68.455 43.2543C68.4203 43.4862 68.4322 43.7229 68.49 43.9501C68.5451 44.1721 68.6446 44.3804 68.7825 44.562C68.9203 44.7436 69.0936 44.8948 69.2915 45.0061C71.237 46.0982 73.4086 46.7147 75.6323 46.806C80.2869 46.806 83.1664 44.742 83.1664 41.118C83.1664 38.2141 81.13 36.5521 77.1106 35.9701V35.9641ZM131.209 42.294C130.926 41.9765 130.541 41.7708 130.123 41.7136C129.704 41.6565 129.279 41.7516 128.923 41.982C128.041 42.5702 127.011 42.8927 125.955 42.912C123.158 42.912 121.128 40.68 121.128 37.6081C121.128 34.5361 123.158 32.2981 125.955 32.2981C126.983 32.2998 127.987 32.6156 128.834 33.2041C129.187 33.4303 129.607 33.5265 130.023 33.4762C130.438 33.4259 130.823 33.2323 131.114 32.9281L131.262 32.7721C131.46 32.5658 131.612 32.3182 131.705 32.0466C131.798 31.775 131.832 31.4861 131.803 31.2001C131.772 30.9211 131.681 30.6524 131.537 30.4129C131.392 30.1734 131.197 29.9689 130.965 29.8141C129.495 28.8666 127.781 28.3763 126.038 28.4041C120.694 28.4041 116.918 32.1961 116.918 37.6201C116.918 43.0441 120.653 46.8 126.02 46.8C127.777 46.8291 129.503 46.3278 130.977 45.36C131.201 45.2054 131.391 45.0047 131.533 44.771C131.675 44.5374 131.767 44.276 131.803 44.004C131.836 43.724 131.809 43.44 131.725 43.171C131.641 42.9021 131.502 42.6542 131.316 42.444L131.185 42.294H131.209ZM44.3441 22.1641C44.014 22.1624 43.6868 22.2275 43.3819 22.3555C43.0771 22.4835 42.8006 22.6719 42.5688 22.9095C42.337 23.1471 42.1546 23.4291 42.0323 23.739C41.9099 24.049 41.8502 24.3805 41.8565 24.7141C41.8492 25.0462 41.9086 25.3764 42.031 25.6848C42.1534 25.9931 42.3364 26.2732 42.5689 26.5081C42.8013 26.7431 43.0785 26.928 43.3836 27.0517C43.6887 27.1754 44.0155 27.2354 44.3441 27.2281C45.0086 27.2352 45.6487 26.9753 46.1236 26.5055C46.5984 26.0358 46.8692 25.3946 46.8763 24.7231C46.8834 24.0515 46.6262 23.4047 46.1613 22.9248C45.6965 22.4448 45.062 22.1712 44.3976 22.1641H44.3441ZM45.1219 28.5421H43.6317C43.2853 28.5421 42.9531 28.6811 42.7081 28.9287C42.4632 29.1762 42.3255 29.512 42.3255 29.8621V45.054C42.3255 45.2271 42.3594 45.3985 42.4251 45.5583C42.4908 45.7181 42.5871 45.8632 42.7085 45.9853C42.8298 46.1074 42.9739 46.2041 43.1323 46.2698C43.2907 46.3354 43.4604 46.3688 43.6317 46.368H45.1219C45.4673 46.3681 45.7986 46.2298 46.0434 45.9836C46.2882 45.7373 46.4265 45.4031 46.428 45.054V29.8621C46.4265 29.5125 46.2884 29.1776 46.0437 28.9304C45.7991 28.6832 45.4678 28.5436 45.1219 28.5421ZM93.3662 42.834C92.4214 42.834 91.5154 42.4548 90.8473 41.7796C90.1793 41.1045 89.804 40.1888 89.804 39.2341V32.4001H93.3662C93.7126 32.4001 94.0448 32.261 94.2898 32.0134C94.5347 31.7659 94.6724 31.4301 94.6724 31.0801V29.8801C94.6708 29.5305 94.5327 29.1956 94.2881 28.9484C94.0435 28.7012 93.7121 28.5616 93.3662 28.5601H89.804V24.6001C89.8057 24.4229 89.7719 24.2472 89.7047 24.0836C89.6375 23.92 89.5382 23.7718 89.4129 23.6479C89.2875 23.524 89.1387 23.4271 88.9753 23.3628C88.812 23.2986 88.6374 23.2684 88.4622 23.2741H86.9186C86.7468 23.274 86.5768 23.3084 86.4183 23.3752C86.2597 23.442 86.1159 23.5399 85.995 23.6632C85.8741 23.7864 85.7786 23.9327 85.7139 24.0935C85.6493 24.2543 85.6168 24.4265 85.6184 24.6001V39.0001C85.6184 43.146 88.7294 46.8 93.0397 46.8C93.4685 46.8001 93.8799 46.6283 94.1837 46.3224C94.4874 46.0165 94.6589 45.6014 94.6605 45.168V44.154C94.6573 43.8029 94.5171 43.4671 94.2703 43.2199C94.0234 42.9727 93.69 42.834 93.3425 42.834H93.3662ZM57.744 28.3921C56.7037 28.3641 55.6681 28.5438 54.6965 28.9209C53.725 29.298 52.8366 29.865 52.0822 30.5895C51.3278 31.314 50.7222 32.1818 50.3 33.1432C49.8779 34.1045 49.6476 35.1406 49.6222 36.1921V45.054C49.6222 45.4025 49.7591 45.7368 50.003 45.9832C50.2468 46.2296 50.5775 46.368 50.9224 46.368H52.4126C52.7574 46.368 53.0881 46.2296 53.332 45.9832C53.5758 45.7368 53.7128 45.4025 53.7128 45.054V36.8821C53.7128 34.1461 55.3514 32.3341 57.744 32.3341C60.1366 32.3341 61.7753 34.1341 61.7753 36.8821V45.054C61.7768 45.4031 61.9151 45.7373 62.1599 45.9836C62.4047 46.2298 62.736 46.3681 63.0814 46.368H64.5657C64.7369 46.3688 64.9066 46.3354 65.0651 46.2698C65.2235 46.2041 65.3675 46.1074 65.4889 45.9853C65.6103 45.8632 65.7066 45.7181 65.7723 45.5583C65.838 45.3985 65.8718 45.2271 65.8718 45.054V36.2161C65.8464 35.1641 65.6159 34.1275 65.1934 33.1658C64.7709 32.204 64.1647 31.336 63.4097 30.6114C62.6547 29.8868 61.7655 29.3199 60.7933 28.9432C59.8211 28.5664 58.7849 28.3873 57.744 28.4161V28.3921ZM165.05 28.5781C164.151 28.4476 163.244 28.3855 162.337 28.3921H162.141C160.071 28.4032 158.09 29.2431 156.632 30.7277C155.175 32.2123 154.359 34.2205 154.363 36.3121V45.054C154.365 45.4031 154.503 45.7373 154.748 45.9836C154.993 46.2298 155.324 46.3681 155.669 46.368H157.154C157.325 46.3688 157.495 46.3354 157.653 46.2698C157.811 46.2041 157.956 46.1074 158.077 45.9853C158.198 45.8632 158.295 45.7181 158.36 45.5583C158.426 45.3985 158.46 45.2271 158.46 45.054V36.4621C158.432 35.9263 158.514 35.3905 158.699 34.8878C158.884 34.385 159.17 33.926 159.537 33.5392C159.905 33.1523 160.348 32.8457 160.837 32.6385C161.327 32.4312 161.853 32.3276 162.384 32.3341C162.799 32.3454 163.212 32.3916 163.619 32.4721C164.071 32.5622 164.54 32.472 164.927 32.2203C165.315 31.9686 165.591 31.5749 165.697 31.1221L165.952 30.0421C165.99 29.8858 165.996 29.7236 165.971 29.5648C165.945 29.4061 165.889 29.2542 165.804 29.1181C165.72 28.981 165.609 28.8626 165.478 28.7698C165.348 28.677 165.2 28.6118 165.044 28.5781H165.05ZM175.932 32.4001C176.104 32.4008 176.274 32.3672 176.433 32.3012C176.592 32.2351 176.736 32.1379 176.858 32.0152C176.979 31.8925 177.075 31.7466 177.141 31.5861C177.206 31.4256 177.239 31.2536 177.239 31.0801V29.8801C177.239 29.53 177.101 29.1942 176.856 28.9467C176.611 28.6991 176.279 28.5601 175.932 28.5601H172.37V24.6001C172.37 24.427 172.336 24.2556 172.271 24.0958C172.205 23.936 172.109 23.7909 171.987 23.6688C171.866 23.5467 171.722 23.45 171.564 23.3843C171.405 23.3187 171.235 23.2853 171.064 23.2861H169.503C169.157 23.2861 168.826 23.4243 168.581 23.6706C168.336 23.9168 168.198 24.251 168.197 24.6001V39.0001C168.197 43.146 171.313 46.8 175.624 46.8C175.836 46.8008 176.046 46.7588 176.242 46.6764C176.437 46.5939 176.615 46.4728 176.764 46.32C177.067 46.0148 177.238 45.6005 177.239 45.168V44.154C177.236 43.8029 177.095 43.4671 176.848 43.2199C176.602 42.9727 176.268 42.834 175.921 42.834C174.976 42.834 174.07 42.4548 173.402 41.7796C172.734 41.1045 172.358 40.1888 172.358 39.2341V32.4001H175.932ZM147.571 29.8261C146.099 28.8774 144.383 28.3871 142.638 28.4161H142.448C140.704 28.3883 138.99 28.8786 137.52 29.8261C135.044 31.3981 133.53 34.1821 133.53 37.6261C133.53 41.226 135.187 44.112 137.876 45.636C139.191 46.4243 140.693 46.8389 142.222 46.836C143.219 46.8563 144.209 46.6514 145.118 46.2362C146.027 45.821 146.832 45.206 147.476 44.436V45.036C147.476 45.2096 147.509 45.3816 147.574 45.5421C147.639 45.7026 147.736 45.8485 147.857 45.9712C147.979 46.0939 148.123 46.1911 148.282 46.2572C148.441 46.3232 148.611 46.3568 148.782 46.3561H150.267C150.438 46.3561 150.608 46.3219 150.766 46.2555C150.924 46.189 151.067 46.0917 151.188 45.9691C151.309 45.8464 151.405 45.7009 151.47 45.5407C151.535 45.3806 151.568 45.2091 151.567 45.036V37.6081C151.567 34.1641 150.059 31.3801 147.583 29.8081L147.571 29.8261ZM144.175 42.654C143.675 42.8238 143.153 42.9168 142.626 42.9301H142.347C141.855 42.9112 141.369 42.8203 140.904 42.66C138.98 41.976 137.704 40.0681 137.704 37.6321C137.704 34.7521 139.485 32.6101 142.002 32.3521H143.083C145.6 32.6101 147.381 34.7521 147.381 37.6321C147.375 40.0441 146.099 41.952 144.175 42.636V42.654ZM110.471 29.8081C109 28.8606 107.287 28.3703 105.543 28.3981H105.353C103.607 28.3691 101.892 28.8594 100.419 29.8081C97.9437 31.3801 96.4356 34.1641 96.4356 37.6081C96.4356 41.208 98.0921 44.094 100.782 45.618C102.086 46.3943 103.572 46.8026 105.086 46.8C106.083 46.822 107.073 46.6179 107.983 46.2026C108.892 45.7872 109.697 45.1713 110.34 44.4V45C110.34 45.1734 110.374 45.345 110.44 45.5052C110.505 45.6653 110.601 45.8109 110.723 45.9334C110.844 46.056 110.988 46.1532 111.146 46.2196C111.305 46.2859 111.475 46.32 111.646 46.32H113.131C113.302 46.3208 113.473 46.2872 113.631 46.2212C113.79 46.1551 113.934 46.0579 114.056 45.9352C114.177 45.8125 114.274 45.6666 114.339 45.5061C114.404 45.3456 114.438 45.1736 114.437 45V37.6081C114.437 34.1641 112.923 31.3801 110.447 29.8081H110.471ZM107.081 42.636C106.581 42.8048 106.058 42.8978 105.531 42.912H105.246C104.755 42.8927 104.269 42.8018 103.804 42.642C101.88 41.958 100.603 40.0501 100.603 37.614C100.603 34.7341 102.385 32.5921 104.908 32.3341H105.976C108.5 32.5921 110.275 34.7341 110.275 37.614C110.275 40.0501 108.998 41.958 107.081 42.642V42.636Z" fill="#898989"/>
</g>
<defs>
<clipPath id="clip0">
<rect width="177.517" height="72" fill="white"/>
</clipPath>
</defs>
</svg>
