<svg width="30" height="35" viewBox="0 0 30 35" fill="none" xmlns="http://www.w3.org/2000/svg">
<path d="M15 0C18.9782 0 22.7936 1.58035 25.6066 4.3934C28.4196 7.20644 30 11.0218 30 15C30 21.21 25.2667 27.7167 16 34.6667C15.7115 34.883 15.3606 35 15 35C14.6394 35 14.2885 34.883 14 34.6667C4.73333 27.7167 0 21.21 0 15C0 11.0218 1.58035 7.20644 4.3934 4.3934C7.20644 1.58035 11.0218 0 15 0ZM15 10C13.6739 10 12.4021 10.5268 11.4645 11.4645C10.5268 12.4021 10 13.6739 10 15C10 16.3261 10.5268 17.5979 11.4645 18.5355C12.4021 19.4732 13.6739 20 15 20C16.3261 20 17.5979 19.4732 18.5355 18.5355C19.4732 17.5979 20 16.3261 20 15C20 13.6739 19.4732 12.4021 18.5355 11.4645C17.5979 10.5268 16.3261 10 15 10Z" fill="#F47F13"/>
</svg>
