<svg width="41" height="33" viewBox="0 0 41 33" fill="none" xmlns="http://www.w3.org/2000/svg">
<path d="M36.9 0H4.1C1.845 0 0.0205 1.85625 0.0205 4.125L0 28.875C0 31.1437 1.845 33 4.1 33H36.9C39.155 33 41 31.1437 41 28.875V4.125C41 1.85625 39.155 0 36.9 0ZM36.08 8.76562L21.5865 17.8819C20.9305 18.2944 20.0695 18.2944 19.4135 17.8819L4.92 8.76562C4.71444 8.64953 4.53443 8.49268 4.39087 8.30456C4.24731 8.11645 4.14318 7.90098 4.08478 7.6712C4.02638 7.44143 4.01493 7.20212 4.05112 6.96776C4.08731 6.7334 4.17039 6.50887 4.29533 6.30775C4.42027 6.10663 4.58446 5.9331 4.77799 5.79768C4.97151 5.66225 5.19034 5.56774 5.42122 5.51987C5.6521 5.47199 5.89023 5.47174 6.12121 5.51914C6.35218 5.56654 6.5712 5.6606 6.765 5.79562L20.5 14.4375L34.235 5.79562C34.4288 5.6606 34.6478 5.56654 34.8788 5.51914C35.1098 5.47174 35.3479 5.47199 35.5788 5.51987C35.8097 5.56774 36.0285 5.66225 36.222 5.79768C36.4155 5.9331 36.5797 6.10663 36.7047 6.30775C36.8296 6.50887 36.9127 6.7334 36.9489 6.96776C36.9851 7.20212 36.9736 7.44143 36.9152 7.6712C36.8568 7.90098 36.7527 8.11645 36.6091 8.30456C36.4656 8.49268 36.2856 8.64953 36.08 8.76562Z" fill="#F47F13"/>
</svg>
