<svg width="78" height="78" viewBox="0 0 78 78" fill="none" xmlns="http://www.w3.org/2000/svg">
<rect x="1" y="1" width="75" height="75" rx="3" stroke="#F47F13" stroke-width="2"/>
<rect x="7.75" y="14.75" width="63.5" height="21.5" rx="3.25" stroke="#F47F13" stroke-width="1.5"/>
<path d="M40.764 32H38.298L33.33 26.006V32H31.26V19.4H33.33V25.052L38.118 19.4H40.584L35.49 25.538L40.764 32ZM49.2157 19.4V21.38H44.1757V32H42.1057V19.4H49.2157Z" fill="#F47F13"/>
<rect x="7.75" y="42.75" width="63.5" height="21.5" rx="3.25" stroke="#F47F13" stroke-width="1.5"/>
<path d="M33.45 47.4V49.38H29.904V60H27.834V49.38H24.27V47.4H33.45ZM35.3407 61.8H34.3507L41.5507 45.6H42.5407L35.3407 61.8ZM51.1877 47.4H53.2577V60H51.1877V55.158C50.3117 55.554 49.3877 55.752 48.4157 55.752C47.1557 55.752 46.1297 55.404 45.3377 54.708C44.5577 54 44.1677 53.064 44.1677 51.9V47.4H46.2377V51.684C46.2377 52.332 46.4357 52.842 46.8317 53.214C47.2277 53.586 47.7677 53.772 48.4517 53.772C49.4477 53.772 50.3597 53.568 51.1877 53.16V47.4Z" fill="#F47F13"/>
</svg>
