<svg width="77" height="77" viewBox="0 0 77 77" fill="none" xmlns="http://www.w3.org/2000/svg">
<g clip-path="url(#clip0)">
<path d="M33.2797 52.2034C37.9647 52.2034 41.7627 48.4054 41.7627 43.7204C41.7627 39.0353 37.9647 35.2373 33.2797 35.2373C28.5946 35.2373 24.7966 39.0353 24.7966 43.7204C24.8038 48.4024 28.5976 52.1962 33.2797 52.2034ZM33.2797 37.8475C36.5232 37.8475 39.1526 40.4768 39.1526 43.7204C39.1526 46.9639 36.5232 49.5932 33.2797 49.5932C30.0362 49.5932 27.4068 46.9639 27.4068 43.7204C27.414 40.4798 30.0392 37.8547 33.2797 37.8475Z" fill="#EB7B14"/>
<path d="M3.21049 36.1769C1.32689 36.5214 -0.0312507 38.1776 -2.16276e-05 40.0922V47.479C-0.0312507 49.3936 1.32689 51.0498 3.21049 51.3942L10.8452 52.7776C10.9235 52.9864 11.0149 53.1953 11.1063 53.391L6.68201 59.6424C5.6058 61.1998 5.79811 63.3042 7.13879 64.6408L12.3591 69.8612C13.6991 71.1977 15.8032 71.3845 17.3576 70.3049L23.7395 65.8807L24.3529 66.1417L25.7362 73.7764C26.0807 75.66 27.7369 77.0182 29.6515 76.9869H37.0383C38.9529 77.0182 40.6091 75.66 40.9535 73.7764L42.3369 66.1417L42.9503 65.8807L49.3322 70.3049C50.8897 71.3811 52.9941 71.1888 54.3307 69.8481L58.533 65.6588C59.0592 65.1615 59.0826 64.3318 58.5852 63.8056C58.0879 63.2794 57.2582 63.256 56.732 63.7534L52.4774 68.008C52.0343 68.4515 51.3384 68.5173 50.82 68.1646L45.5996 64.5364C48.624 62.7533 51.2176 60.3246 53.1952 57.4237C53.5989 56.8255 53.4411 56.0133 52.8429 55.6097C52.2446 55.206 51.4324 55.3638 51.0288 55.962C44.8329 64.9885 32.8503 67.9291 23.1796 62.7964C13.509 57.6637 9.22895 46.0916 13.2323 35.9015C17.2357 25.7113 28.248 20.1471 38.8263 22.9695C39.2785 23.0861 39.7586 22.9525 40.0857 22.6191C40.4128 22.2857 40.5372 21.8031 40.412 21.3531C40.2868 20.9032 39.9311 20.5542 39.4788 20.4376C35.4429 19.3938 31.2078 19.3938 27.1718 20.4376L28.2942 14.1863C28.409 13.5584 28.9611 13.1057 29.5993 13.1161H33.9322C34.653 13.1161 35.2373 12.5318 35.2373 11.811C35.2373 11.0902 34.653 10.5059 33.9322 10.5059H29.5863C27.6717 10.4747 26.0154 11.8328 25.671 13.7164L24.2876 21.3512L23.6742 21.6122L17.3576 17.1227C15.8001 16.0465 13.6957 16.2388 12.3591 17.5795L7.13879 22.7998C5.80224 24.1398 5.61545 26.2439 6.69506 27.7983L11.1193 34.1802C11.0279 34.3759 10.9366 34.5847 10.8583 34.7936L3.21049 36.1769ZM2.61015 47.4137V40.0269C2.59974 39.3888 3.05245 38.8367 3.68032 38.7219L9.91862 37.5995C8.87444 41.6044 8.87444 45.8102 9.91862 49.8151L3.68032 48.6927C3.06221 48.5796 2.61245 48.0421 2.61015 47.4137ZM39.3874 67.0814L38.2651 73.3197C38.1503 73.9475 37.5982 74.4002 36.96 74.3898H29.5863C28.9481 74.4002 28.396 73.9475 28.2812 73.3197L27.1588 67.0814C31.167 68.1343 35.3792 68.1343 39.3874 67.0814ZM21.1163 64.5625L15.8959 68.1776C15.3806 68.5337 14.6849 68.4735 14.2385 68.0341L9.01811 62.8137C8.57455 62.3706 8.50879 61.6746 8.8615 61.1563L12.4766 55.9359C14.5676 59.5015 17.5377 62.4715 21.1032 64.5625H21.1163ZM8.96591 24.653L14.1863 19.4327C14.6294 18.9891 15.3253 18.9234 15.8437 19.2761L21.064 22.8912C17.4793 24.9878 14.4949 27.9722 12.3983 31.5569L8.7832 26.3366C8.42233 25.8067 8.49976 25.0932 8.96591 24.653Z" fill="#EB7B14"/>
<path d="M74.3898 0H40.4576C39.0161 0 37.8474 1.16861 37.8474 2.61017V14.3559C37.8355 15.2841 38.3377 16.1429 39.1525 16.5876C39.6789 16.9004 40.2928 17.0332 40.9013 16.9661C44.6469 26.3497 43.7856 24.1702 45.1168 27.4851C43.9264 27.7471 43.0758 28.7981 43.0678 30.017V33.9322C43.0678 35.3738 44.2364 36.5424 45.6779 36.5424H46.983V40.4576C46.983 41.8992 48.1516 43.0678 49.5932 43.0678H50.8983V50.8983C50.8983 51.3091 51.0917 51.6959 51.4203 51.9424L56.1186 55.4661V60.0339C56.1186 60.7547 56.7029 61.339 57.4237 61.339C58.1445 61.339 58.7288 60.7547 58.7288 60.0339V55.4661L63.4271 51.9424C63.7557 51.6959 63.9491 51.3091 63.9491 50.8983V43.0678H65.2542C66.6958 43.0678 67.8644 41.8992 67.8644 40.4576V36.5424H69.1695C70.611 36.5424 71.7797 35.3738 71.7797 33.9322V30.017C71.7744 28.8059 70.9368 27.7576 69.7568 27.4851L73.9722 16.9661H74.3898C75.8314 16.9661 77 15.7975 77 14.3559V2.61017C77 1.16861 75.8314 0 74.3898 0V0ZM61.339 50.2458L57.4237 53.1822L53.5085 50.2458V43.0678H61.339V50.2458ZM69.1695 33.9322H57.4237C56.7029 33.9322 56.1186 34.5165 56.1186 35.2373C56.1186 35.9581 56.7029 36.5424 57.4237 36.5424H65.2542V40.4576H49.5932V36.5424H52.2034C52.9242 36.5424 53.5085 35.9581 53.5085 35.2373C53.5085 34.5165 52.9242 33.9322 52.2034 33.9322H45.6779V30.017H69.1695V33.9322ZM66.9769 27.4068H47.8705L43.6942 16.9661H71.101L66.9769 27.4068ZM74.3898 14.3559H40.4576V2.61017H74.3898V14.3559Z" fill="#EB7B14"/>
<path d="M44.3729 7.83051H46.9831C47.7038 7.83051 48.2882 7.2462 48.2882 6.52542C48.2882 5.80464 47.7038 5.22034 46.9831 5.22034H44.3729C43.6521 5.22034 43.0678 5.80464 43.0678 6.52542C43.0678 7.2462 43.6521 7.83051 44.3729 7.83051Z" fill="#EB7B14"/>
<path d="M52.2034 7.83051H70.4746C71.1954 7.83051 71.7797 7.2462 71.7797 6.52542C71.7797 5.80464 71.1954 5.22034 70.4746 5.22034H52.2034C51.4826 5.22034 50.8983 5.80464 50.8983 6.52542C50.8983 7.2462 51.4826 7.83051 52.2034 7.83051Z" fill="#EB7B14"/>
<path d="M25.9581 29.4297C25.6324 28.7898 24.851 28.5332 24.2093 28.8554C18.7019 31.6091 15.661 37.1166 15.661 44.3729C15.661 45.0937 16.2453 45.678 16.9661 45.678C17.6869 45.678 18.2712 45.0937 18.2712 44.3729C18.2712 38.1607 20.79 33.4754 25.3839 31.1785C26.0238 30.8528 26.2804 30.0713 25.9581 29.4297Z" fill="#EB7B14"/>
<path d="M28.7119 28.7119C29.4327 28.7119 30.017 28.1276 30.017 27.4068C30.017 26.686 29.4327 26.1017 28.7119 26.1017C27.9911 26.1017 27.4068 26.686 27.4068 27.4068C27.4068 28.1276 27.9911 28.7119 28.7119 28.7119Z" fill="#EB7B14"/>
</g>
<defs>
<clipPath id="clip0">
<rect width="77" height="77" fill="white"/>
</clipPath>
</defs>
</svg>
