<svg width="77" height="77" viewBox="0 0 77 77" fill="none" xmlns="http://www.w3.org/2000/svg">
<rect x="1" y="1" width="75" height="75" rx="3" stroke="#F47F13" stroke-width="2"/>
<rect x="8" y="8" width="5" height="5" fill="#F47F13"/>
<rect x="41" y="8" width="5" height="5" fill="#F47F13"/>
<rect x="19" y="8" width="5" height="5" fill="#F47F13"/>
<rect x="52" y="8" width="5" height="5" fill="#F47F13"/>
<rect x="30" y="8" width="5" height="5" fill="#F47F13"/>
<rect x="63" y="8" width="5" height="5" fill="#F47F13"/>
<rect x="8" y="18" width="5" height="5" fill="#F47F13"/>
<rect x="41" y="18" width="5" height="5" fill="#F47F13"/>
<rect x="19" y="18" width="5" height="5" fill="#F47F13"/>
<rect x="52" y="18" width="5" height="5" fill="#F47F13"/>
<rect x="30" y="18" width="5" height="5" fill="#F47F13"/>
<rect x="63" y="18" width="5" height="5" fill="#F47F13"/>
<rect x="9" y="35" width="4" height="4" fill="#F47F13"/>
<rect x="42" y="35" width="4" height="4" fill="#F47F13"/>
<rect x="20" y="35" width="4" height="4" fill="#F47F13"/>
<rect x="53" y="35" width="4" height="4" fill="#F47F13"/>
<rect x="31" y="35" width="4" height="4" fill="#F47F13"/>
<rect x="64" y="35" width="4" height="4" fill="#F47F13"/>
<rect x="9" y="45" width="4" height="4" fill="#F47F13"/>
<rect x="42" y="45" width="4" height="4" fill="#F47F13"/>
<rect x="20" y="45" width="4" height="4" fill="#F47F13"/>
<rect x="53" y="45" width="4" height="4" fill="#F47F13"/>
<rect x="31" y="45" width="4" height="4" fill="#F47F13"/>
<rect x="64" y="45" width="4" height="4" fill="#F47F13"/>
<rect x="9" y="58" width="3" height="3" fill="#F47F13"/>
<rect x="42" y="58" width="3" height="3" fill="#F47F13"/>
<rect x="20" y="58" width="3" height="3" fill="#F47F13"/>
<rect x="53" y="58" width="3" height="3" fill="#F47F13"/>
<rect x="31" y="58" width="3" height="3" fill="#F47F13"/>
<rect x="64" y="58" width="3" height="3" fill="#F47F13"/>
<rect x="9" y="68" width="3" height="3" fill="#F47F13"/>
<rect x="42" y="68" width="3" height="3" fill="#F47F13"/>
<rect x="20" y="68" width="3" height="3" fill="#F47F13"/>
<rect x="53" y="68" width="3" height="3" fill="#F47F13"/>
<rect x="31" y="68" width="3" height="3" fill="#F47F13"/>
<rect x="64" y="68" width="3" height="3" fill="#F47F13"/>
<line x1="1" y1="29.25" x2="75" y2="29.25" stroke="#F47F13" stroke-width="1.5"/>
<line x1="1" y1="54.25" x2="75" y2="54.25" stroke="#F47F13" stroke-width="1.5"/>
</svg>
