<svg width="75" height="77" viewBox="0 0 75 77" fill="none" xmlns="http://www.w3.org/2000/svg">
<path d="M44.5701 19.6581C43.8075 19.6581 43.1907 20.2758 43.1907 21.0375V33.9707C43.1907 34.732 43.8075 35.3501 44.5701 35.3501H73.1951C73.9581 35.3501 74.5749 34.7316 74.5749 33.9707C74.5749 33.2089 73.9581 32.5913 73.1951 32.5913H45.9499V22.4173H56.4686C57.2316 22.4173 57.8484 21.7989 57.8484 21.0379V11.0262C57.8484 10.2649 57.2316 9.6468 56.4686 9.6468H37.5002C36.7369 9.6468 36.1208 10.2652 36.1208 11.0262V32.5913H19.9112V26.7284H30.9476C31.7106 26.7284 32.327 26.1099 32.327 25.349V19.3133C32.327 18.5515 31.7109 17.9339 30.9476 17.9339H26.5492V12.4056H32.1542C32.9175 12.4056 33.5336 11.788 33.5336 11.0262V1.37941C33.534 0.617663 32.9175 0 32.1542 0C31.3913 0 30.7748 0.617663 30.7748 1.37941V9.64641H25.1698C24.4069 9.64641 23.7904 10.2649 23.7904 11.0258V19.3133C23.7904 20.0746 24.4065 20.6927 25.1698 20.6927H29.5678V23.9688H19.9112V19.3133C19.9112 18.5515 19.2951 17.9339 18.5318 17.9339H8.01301C7.24969 17.9339 6.6336 18.5515 6.6336 19.3133V23.9692H1.80488C1.04196 23.9692 0.425476 24.5868 0.425476 25.3486C0.425476 26.1099 1.04196 26.728 1.80488 26.728H6.6332V32.5913H1.80488C1.04196 32.5913 0.425476 33.2089 0.425476 33.9707C0.425476 34.732 1.04196 35.3501 1.80488 35.3501H6.6332V40.3508H1.80488C1.04196 40.3508 0.425476 40.9681 0.425476 41.7306C0.425476 42.492 1.04196 43.11 1.80488 43.11H6.6332V48.9733H1.80488C1.04196 48.9733 0.425476 49.5902 0.425476 50.3527C0.425476 51.1141 1.04196 51.7325 1.80488 51.7325H6.6332V55.3535H1.80488C1.04196 55.3535 0.425476 55.9703 0.425476 56.7333C0.425476 57.4946 1.04196 58.1127 1.80488 58.1127H6.6332V65.8726C6.6332 66.634 7.24929 67.252 8.01261 67.252H18.5314C19.2943 67.252 19.9108 66.634 19.9108 65.8726V58.1127H24.0494V65.8726C24.0494 66.634 24.6655 67.252 25.4288 67.252H45.157L46.8384 75.8836C46.9624 76.5315 47.5312 77.0004 48.1914 77.0004H73.1951C73.9581 77.0004 74.5749 76.3808 74.5749 75.621C74.5749 74.8581 73.9581 74.2412 73.1951 74.2412H49.3283L47.647 65.6085C47.5234 64.9605 46.9545 64.4928 46.2943 64.4928H26.8086V56.7333C26.8086 55.9703 26.1925 55.3535 25.4292 55.3535H19.9112V51.7325H36.9829V56.7333C36.9829 57.4946 37.599 58.1127 38.3627 58.1127H59.9176C60.6805 58.1127 61.297 57.4946 61.297 56.7333V50.1803H73.1955C73.9585 50.1803 74.5753 49.5618 74.5753 48.8005C74.5753 48.0379 73.9585 47.4211 73.1955 47.4211H59.9176C59.155 47.4211 58.5381 48.0379 58.5381 48.8005V55.3535H39.7421V50.3527C39.7421 49.5902 39.1253 48.9733 38.3627 48.9733H19.9112V43.11H73.1951C73.9581 43.11 74.5749 42.492 74.5749 41.7306C74.5749 40.9681 73.9581 40.3508 73.1951 40.3508H19.9112V35.3501H37.5002C38.2631 35.3501 38.8796 34.7316 38.8796 33.9707V12.4056H55.0892V19.6581H44.5701ZM17.152 64.4924H9.39202V56.7329V50.3523V20.6927H17.152V50.3523V56.7329V64.4924Z" fill="#EB7B14"/>
</svg>
