<svg width="78" height="78" viewBox="0 0 78 78" fill="none" xmlns="http://www.w3.org/2000/svg">
<path d="M5.12088 28.5782C5.53089 29.9839 6.09988 31.3394 6.81948 32.6113L4.76945 35.1968C4.10005 36.042 4.17536 37.2469 4.92843 38.0083L8.45951 41.5394C9.22095 42.3008 10.4259 42.3677 11.271 41.6983L13.8398 39.665C15.1619 40.4265 16.5676 41.0205 18.0319 41.4389L18.4168 44.7441C18.5423 45.8151 19.446 46.6184 20.5171 46.6184H25.5125C26.5835 46.6184 27.4872 45.815 27.6127 44.7441L27.9809 41.5561C29.554 41.146 31.0601 40.5352 32.4742 39.7403L34.9594 41.7067C35.8045 42.3761 37.0094 42.3008 37.7708 41.5477L41.3019 38.0166C42.0634 37.2552 42.1303 36.0502 41.4609 35.2051L39.528 32.7535C40.3313 31.3644 40.9589 29.8834 41.3772 28.3354L44.3561 27.9924C45.4272 27.8668 46.2304 26.9632 46.2304 25.8921V20.8967C46.2304 19.8257 45.4271 18.922 44.3561 18.7965L41.4191 18.4534C41.0173 16.9222 40.415 15.4579 39.6452 14.0856L41.4526 11.8013C42.122 10.9561 42.0467 9.75122 41.2936 8.98978L37.7709 5.46707C37.0095 4.70563 35.8046 4.63869 34.9594 5.30809L32.7421 7.06526C31.3028 6.22014 29.7631 5.57585 28.1483 5.14074L27.8136 2.27069C27.6881 1.19965 26.7844 0.39637 25.7134 0.39637H20.718C19.6469 0.39637 18.7432 1.19965 18.6177 2.27069L18.283 5.14074C16.6263 5.58421 15.0448 6.25361 13.5721 7.1322L11.2711 5.30809C10.426 4.63869 9.22104 4.71399 8.4596 5.46707L4.92851 8.99815C4.16707 9.75959 4.10013 10.9645 4.76953 11.8096L6.69405 14.2446C5.92425 15.6336 5.33852 17.1146 4.95362 18.6542L1.87438 19.0057C0.80334 19.1312 6.10352e-05 20.0349 6.10352e-05 21.1059V26.1013C6.10352e-05 27.1723 0.80334 28.076 1.87438 28.2015L5.12088 28.5782ZM23.2198 15.0647C27.7717 15.0647 31.4785 18.7715 31.4785 23.3234C31.4785 27.8753 27.7717 31.5821 23.2198 31.5821C18.6679 31.5821 14.9611 27.8753 14.9611 23.3234C14.9611 18.7715 18.6679 15.0647 23.2198 15.0647Z" fill="#F47F13"/>
<path d="M72.6046 29.8082L69.9689 27.5824C69.1573 26.8963 67.9607 26.9298 67.1909 27.6577L65.735 29.0217C64.5051 28.4276 63.1997 28.0092 61.8525 27.7665L61.4426 25.7583C61.2335 24.7208 60.2712 24.0012 59.2167 24.0848L55.7777 24.3777C54.7234 24.4697 53.895 25.3316 53.8615 26.3943L53.7947 28.4359C52.4725 28.9129 51.2258 29.5655 50.0878 30.3856L48.3474 29.2308C47.4603 28.6451 46.2806 28.8125 45.5945 29.6241L43.3688 32.2766C42.6826 33.0883 42.716 34.2848 43.4439 35.0546L44.9669 36.6778C44.4397 37.866 44.0631 39.1128 43.8456 40.393L41.6701 40.8365C40.6325 41.0456 39.9129 42.0079 39.9966 43.0623L40.2895 46.5013C40.3815 47.5556 41.2434 48.384 42.306 48.4175L44.6573 48.4927C45.0842 49.614 45.6447 50.6767 46.3224 51.6724L45.0088 53.6555C44.4231 54.5424 44.5904 55.7222 45.402 56.4084L48.0378 58.6341C48.8495 59.3203 50.046 59.2868 50.8158 58.5588L52.5395 56.9439C53.6692 57.471 54.8573 57.8643 56.0789 58.0986L56.5559 60.4582C56.7651 61.4958 57.7274 62.2154 58.7817 62.1317L62.2207 61.8389C63.275 61.7468 64.1034 60.8851 64.1369 59.8223L64.2122 57.5128C65.4673 57.0693 66.6554 56.4669 67.7516 55.7222L69.6511 56.9774C70.538 57.5631 71.7178 57.3957 72.404 56.5841L74.6297 53.9483C75.3158 53.1367 75.2823 51.9401 74.5544 51.1703L73.0231 49.5471C73.5838 48.3589 73.9939 47.1038 74.228 45.8151L76.3199 45.3884C77.3574 45.1792 78.077 44.2169 77.9934 43.1625L77.7005 39.7235C77.6085 38.6692 76.7466 37.8408 75.6839 37.8073L73.5837 37.7404C73.1485 36.5188 72.5628 35.3641 71.8349 34.293L72.9812 32.5693C73.5837 31.6825 73.4164 30.4943 72.6046 29.8082ZM59.6436 49.6893C55.9284 50.0073 52.6482 47.2376 52.3386 43.5225C52.0206 39.8073 54.7904 36.5272 58.5054 36.2176C62.2206 35.8996 65.5008 38.6694 65.8103 42.3844C66.1284 46.0997 63.3586 49.3798 59.6436 49.6893Z" fill="#F47F13"/>
<path d="M17.1533 58.9438C16.099 59.0526 15.2874 59.9394 15.279 61.0022L15.2539 63.1192C15.2372 64.1818 16.0237 65.0855 17.078 65.2195L18.6344 65.4202C18.8938 66.3658 19.262 67.2695 19.7389 68.123L18.7348 69.3614C18.0654 70.1897 18.1156 71.378 18.8603 72.1394L20.3414 73.6539C21.0861 74.4154 22.2742 74.499 23.1194 73.8464L24.366 72.8841C25.2446 73.4029 26.1735 73.813 27.144 74.0974L27.3114 75.7039C27.4202 76.7583 28.3071 77.5699 29.3698 77.5783L31.4869 77.6034C32.5494 77.6201 33.4532 76.8336 33.5871 75.7793L33.7795 74.2564C34.8339 73.9969 35.838 73.6037 36.7918 73.0849L37.9633 74.0305C38.7917 74.6999 39.9799 74.6496 40.7414 73.9049L42.2559 72.4239C43.0173 71.6793 43.101 70.491 42.4484 69.6459L41.5529 68.4827C42.1052 67.5623 42.532 66.5833 42.8249 65.5541L44.2139 65.4118C45.2682 65.3031 46.0798 64.4161 46.0882 63.3534L46.1132 61.2364C46.13 60.1738 45.3435 59.27 44.2892 59.1361L42.9336 58.9604C42.6742 57.9396 42.2894 56.9522 41.7873 56.0318L42.6324 54.9942C43.3018 54.1659 43.2516 52.9777 42.5069 52.2162L41.026 50.7017C40.2813 49.9402 39.0929 49.8565 38.2479 50.5093L37.2353 51.2874C36.2815 50.7101 35.2606 50.2666 34.1896 49.9654L34.0557 48.6517C33.9469 47.5973 33.06 46.7857 31.9973 46.7774L29.8803 46.7523C28.8176 46.7355 27.9139 47.5221 27.78 48.5764L27.6126 49.8818C26.5082 50.1662 25.4455 50.6014 24.4582 51.1703L23.4122 50.3168C22.5838 49.6474 21.3956 49.6977 20.6341 50.4423L19.1113 51.9318C18.3498 52.6764 18.2661 53.8647 18.9188 54.7097L19.8141 55.8645C19.2953 56.785 18.8853 57.7639 18.6176 58.7932L17.1533 58.9438ZM30.8175 56.5506C33.8549 56.5841 36.2897 59.086 36.2563 62.1234C36.2229 65.1608 33.7209 67.5957 30.6835 67.5623C27.6461 67.5288 25.2112 65.0269 25.2446 61.9895C25.2782 58.9521 27.7801 56.5172 30.8175 56.5506Z" fill="#F47F13"/>
</svg>
