<svg width="94" height="94" viewBox="0 0 94 94" fill="none" xmlns="http://www.w3.org/2000/svg">
<g clip-path="url(#clip0)">
<path d="M23.8672 81.8828C22.8532 81.8828 22.0313 81.0609 22.0313 80.0469L22.0313 63.9132L0.158295 14.6989C-0.0941462 14.1308 -0.0421892 13.4738 0.296541 12.9527C0.635088 12.4317 1.21451 12.1172 1.83597 12.1172L49.7536 12.1172C50.7676 12.1172 51.5895 12.9393 51.5895 13.9531C51.5895 14.9669 50.7676 15.7891 49.7536 15.7891L16.8543 15.7891L4.66112 15.7891L25.7032 65.3594L25.7032 78.2109L68.2969 78.2109L68.2969 65.3594L89.339 15.7889L66.2774 15.7889C65.2634 15.7889 64.4414 14.9667 64.4414 13.9529C64.4414 12.9391 65.2634 12.117 66.2774 12.117L92.1641 12.117C92.7856 12.117 93.365 12.4315 93.7035 12.9525C94.0445 13.4776 94.0924 14.1347 93.8418 14.6987L71.9688 63.913L71.9688 80.0469C71.9688 81.0609 71.1468 81.8828 70.1329 81.8828L23.8672 81.8828Z" fill="#F47F13"/>
<path d="M59.8516 13.9531C59.8516 12.9392 59.0296 12.1172 58.0156 12.1172C57.0017 12.1172 56.1797 12.9392 56.1797 13.9531C56.1797 14.9671 57.0017 15.7891 58.0156 15.7891C59.0296 15.7891 59.8516 14.9671 59.8516 13.9531Z" fill="#F47F13"/>
<path d="M22.6719 41.8359C22.6719 40.822 21.8499 40 20.8359 40C19.822 40 19 40.822 19 41.8359C19 42.8499 19.822 43.6719 20.8359 43.6719C21.8499 43.6719 22.6719 42.8499 22.6719 41.8359Z" fill="#F47F13"/>
<path d="M53.3594 41.8359C53.3594 40.822 52.5374 40 51.5234 40C50.5095 40 49.6875 40.822 49.6875 41.8359C49.6875 42.8499 50.5095 43.6719 51.5234 43.6719C52.5374 43.6719 53.3594 42.8499 53.3594 41.8359Z" fill="#F47F13"/>
<path d="M38.0156 41.8359C38.0156 40.822 37.1936 40 36.1797 40C35.1657 40 34.3438 40.822 34.3438 41.8359C34.3438 42.8499 35.1657 43.6719 36.1797 43.6719C37.1936 43.6719 38.0156 42.8499 38.0156 41.8359Z" fill="#F47F13"/>
<path d="M68.7031 41.8359C68.7031 40.822 67.8811 40 66.8672 40C65.8532 40 65.0313 40.822 65.0313 41.8359C65.0313 42.8499 65.8532 43.6719 66.8672 43.6719C67.8811 43.6719 68.7031 42.8499 68.7031 41.8359Z" fill="#F47F13"/>
<path d="M30.3438 41.8359C30.3438 40.822 29.5218 40 28.5078 40C27.4939 40 26.6719 40.822 26.6719 41.8359C26.6719 42.8499 27.4939 43.6719 28.5078 43.6719C29.5218 43.6719 30.3438 42.8499 30.3438 41.8359Z" fill="#F47F13"/>
<path d="M61.0313 41.8359C61.0313 40.822 60.2093 40 59.1953 40C58.1814 40 57.3594 40.822 57.3594 41.8359C57.3594 42.8499 58.1814 43.6719 59.1953 43.6719C60.2093 43.6719 61.0313 42.8499 61.0313 41.8359Z" fill="#F47F13"/>
<path d="M45.6875 41.8359C45.6875 40.822 44.8655 40 43.8516 40C42.8376 40 42.0156 40.822 42.0156 41.8359C42.0156 42.8499 42.8376 43.6719 43.8516 43.6719C44.8655 43.6719 45.6875 42.8499 45.6875 41.8359Z" fill="#F47F13"/>
<path d="M76.375 41.8359C76.375 40.822 75.553 40 74.5391 40C73.5251 40 72.7031 40.822 72.7031 41.8359C72.7031 42.8499 73.5251 43.6719 74.5391 43.6719C75.553 43.6719 76.375 42.8499 76.375 41.8359Z" fill="#F47F13"/>
<path d="M25.6719 50.5078C25.6719 49.4939 24.8499 48.6719 23.8359 48.6719C22.822 48.6719 22 49.4939 22 50.5078C22 51.5218 22.822 52.3438 23.8359 52.3438C24.8499 52.3438 25.6719 51.5218 25.6719 50.5078Z" fill="#F47F13"/>
<path d="M52.3594 50.5078C52.3594 49.4939 51.5374 48.6719 50.5234 48.6719C49.5095 48.6719 48.6875 49.4939 48.6875 50.5078C48.6875 51.5218 49.5095 52.3438 50.5234 52.3438C51.5374 52.3438 52.3594 51.5218 52.3594 50.5078Z" fill="#F47F13"/>
<path d="M39.0156 50.5078C39.0156 49.4939 38.1936 48.6719 37.1797 48.6719C36.1657 48.6719 35.3438 49.4939 35.3438 50.5078C35.3438 51.5218 36.1657 52.3438 37.1797 52.3438C38.1936 52.3438 39.0156 51.5218 39.0156 50.5078Z" fill="#F47F13"/>
<path d="M65.7031 50.5078C65.7031 49.4939 64.8811 48.6719 63.8672 48.6719C62.8532 48.6719 62.0313 49.4939 62.0313 50.5078C62.0313 51.5218 62.8532 52.3438 63.8672 52.3438C64.8811 52.3438 65.7031 51.5218 65.7031 50.5078Z" fill="#F47F13"/>
<path d="M32.3438 50.5078C32.3438 49.4939 31.5218 48.6719 30.5078 48.6719C29.4939 48.6719 28.6719 49.4939 28.6719 50.5078C28.6719 51.5218 29.4939 52.3438 30.5078 52.3438C31.5218 52.3438 32.3438 51.5218 32.3438 50.5078Z" fill="#F47F13"/>
<path d="M59.0313 50.5078C59.0313 49.4939 58.2093 48.6719 57.1953 48.6719C56.1814 48.6719 55.3594 49.4939 55.3594 50.5078C55.3594 51.5218 56.1814 52.3438 57.1953 52.3438C58.2093 52.3438 59.0313 51.5218 59.0313 50.5078Z" fill="#F47F13"/>
<path d="M45.6875 50.5078C45.6875 49.4939 44.8655 48.6719 43.8516 48.6719C42.8376 48.6719 42.0156 49.4939 42.0156 50.5078C42.0156 51.5218 42.8376 52.3438 43.8516 52.3438C44.8655 52.3438 45.6875 51.5218 45.6875 50.5078Z" fill="#F47F13"/>
<path d="M72.375 50.5078C72.375 49.4939 71.553 48.6719 70.5391 48.6719C69.5251 48.6719 68.7031 49.4939 68.7031 50.5078C68.7031 51.5218 69.5251 52.3438 70.5391 52.3438C71.553 52.3438 72.375 51.5218 72.375 50.5078Z" fill="#F47F13"/>
<path d="M52.3594 58.8359C52.3594 57.822 51.5374 57 50.5234 57C49.5095 57 48.6875 57.822 48.6875 58.8359C48.6875 59.8499 49.5095 60.6719 50.5234 60.6719C51.5374 60.6719 52.3594 59.8499 52.3594 58.8359Z" fill="#F47F13"/>
<path d="M39.0156 58.8359C39.0156 57.822 38.1936 57 37.1797 57C36.1657 57 35.3438 57.822 35.3438 58.8359C35.3438 59.8499 36.1657 60.6719 37.1797 60.6719C38.1936 60.6719 39.0156 59.8499 39.0156 58.8359Z" fill="#F47F13"/>
<path d="M65.7031 58.8359C65.7031 57.822 64.8811 57 63.8672 57C62.8532 57 62.0313 57.822 62.0313 58.8359C62.0313 59.8499 62.8532 60.6719 63.8672 60.6719C64.8811 60.6719 65.7031 59.8499 65.7031 58.8359Z" fill="#F47F13"/>
<path d="M32.3438 58.8359C32.3438 57.822 31.5218 57 30.5078 57C29.4939 57 28.6719 57.822 28.6719 58.8359C28.6719 59.8499 29.4939 60.6719 30.5078 60.6719C31.5218 60.6719 32.3438 59.8499 32.3438 58.8359Z" fill="#F47F13"/>
<path d="M59.0313 58.8359C59.0313 57.822 58.2093 57 57.1953 57C56.1814 57 55.3594 57.822 55.3594 58.8359C55.3594 59.8499 56.1814 60.6719 57.1953 60.6719C58.2093 60.6719 59.0313 59.8499 59.0313 58.8359Z" fill="#F47F13"/>
<path d="M45.6875 58.8359C45.6875 57.822 44.8655 57 43.8516 57C42.8376 57 42.0156 57.822 42.0156 58.8359C42.0156 59.8499 42.8376 60.6719 43.8516 60.6719C44.8655 60.6719 45.6875 59.8499 45.6875 58.8359Z" fill="#F47F13"/>
<path d="M52.3594 66.8359C52.3594 65.822 51.5374 65 50.5234 65C49.5095 65 48.6875 65.822 48.6875 66.8359C48.6875 67.8499 49.5095 68.6719 50.5234 68.6719C51.5374 68.6719 52.3594 67.8499 52.3594 66.8359Z" fill="#F47F13"/>
<path d="M39.0156 66.8359C39.0156 65.822 38.1936 65 37.1797 65C36.1657 65 35.3438 65.822 35.3438 66.8359C35.3438 67.8499 36.1657 68.6719 37.1797 68.6719C38.1936 68.6719 39.0156 67.8499 39.0156 66.8359Z" fill="#F47F13"/>
<path d="M65.7031 66.8359C65.7031 65.822 64.8811 65 63.8672 65C62.8532 65 62.0313 65.822 62.0313 66.8359C62.0313 67.8499 62.8532 68.6719 63.8672 68.6719C64.8811 68.6719 65.7031 67.8499 65.7031 66.8359Z" fill="#F47F13"/>
<path d="M32.3438 66.8359C32.3438 65.822 31.5218 65 30.5078 65C29.4939 65 28.6719 65.822 28.6719 66.8359C28.6719 67.8499 29.4939 68.6719 30.5078 68.6719C31.5218 68.6719 32.3438 67.8499 32.3438 66.8359Z" fill="#F47F13"/>
<path d="M59.0313 66.8359C59.0313 65.822 58.2093 65 57.1953 65C56.1814 65 55.3594 65.822 55.3594 66.8359C55.3594 67.8499 56.1814 68.6719 57.1953 68.6719C58.2093 68.6719 59.0313 67.8499 59.0313 66.8359Z" fill="#F47F13"/>
<path d="M45.6875 66.8359C45.6875 65.822 44.8655 65 43.8516 65C42.8376 65 42.0156 65.822 42.0156 66.8359C42.0156 67.8499 42.8376 68.6719 43.8516 68.6719C44.8655 68.6719 45.6875 67.8499 45.6875 66.8359Z" fill="#F47F13"/>
<path d="M52.3594 74.8359C52.3594 73.822 51.5374 73 50.5234 73C49.5095 73 48.6875 73.822 48.6875 74.8359C48.6875 75.8499 49.5095 76.6719 50.5234 76.6719C51.5374 76.6719 52.3594 75.8499 52.3594 74.8359Z" fill="#F47F13"/>
<path d="M48.3438 88.8359C48.3438 87.822 47.5218 87 46.5078 87C45.4939 87 44.6719 87.822 44.6719 88.8359C44.6719 89.8499 45.4939 90.6719 46.5078 90.6719C47.5218 90.6719 48.3438 89.8499 48.3438 88.8359Z" fill="#F47F13"/>
<path d="M39.0156 74.8359C39.0156 73.822 38.1936 73 37.1797 73C36.1657 73 35.3438 73.822 35.3438 74.8359C35.3438 75.8499 36.1657 76.6719 37.1797 76.6719C38.1936 76.6719 39.0156 75.8499 39.0156 74.8359Z" fill="#F47F13"/>
<path d="M59.0313 74.8359C59.0313 73.822 58.2093 73 57.1953 73C56.1814 73 55.3594 73.822 55.3594 74.8359C55.3594 75.8499 56.1814 76.6719 57.1953 76.6719C58.2093 76.6719 59.0313 75.8499 59.0313 74.8359Z" fill="#F47F13"/>
<path d="M55.0156 88.8359C55.0156 87.822 54.1936 87 53.1797 87C52.1657 87 51.3438 87.822 51.3438 88.8359C51.3438 89.8499 52.1657 90.6719 53.1797 90.6719C54.1936 90.6719 55.0156 89.8499 55.0156 88.8359Z" fill="#F47F13"/>
<path d="M45.6875 74.8359C45.6875 73.822 44.8655 73 43.8516 73C42.8376 73 42.0156 73.822 42.0156 74.8359C42.0156 75.8499 42.8376 76.6719 43.8516 76.6719C44.8655 76.6719 45.6875 75.8499 45.6875 74.8359Z" fill="#F47F13"/>
<path d="M41.6719 88.8359C41.6719 87.822 40.8499 87 39.8359 87C38.822 87 38 87.822 38 88.8359C38 89.8499 38.822 90.6719 39.8359 90.6719C40.8499 90.6719 41.6719 89.8499 41.6719 88.8359Z" fill="#F47F13"/>
</g>
<defs>
<clipPath id="clip0">
<rect width="94" height="94" fill="white" transform="translate(0 94) rotate(-90)"/>
</clipPath>
</defs>
</svg>
