<svg width="181" height="72" viewBox="0 0 181 72" fill="none" xmlns="http://www.w3.org/2000/svg">
<g clip-path="url(#clip0)">
<path d="M30.4511 22.62L34.1465 16.14C34.6275 15.2355 34.7404 14.1783 34.4615 13.1916C34.1825 12.2049 33.5336 11.3659 32.6516 10.8519C31.7697 10.3379 30.7238 10.1891 29.7349 10.4369C28.746 10.6847 27.8915 11.3097 27.3518 12.18L23.6564 18.66C20.456 17.6596 17.0425 17.573 13.7961 18.4098C10.5496 19.2465 7.59752 20.9738 5.26838 23.3993C2.93924 25.8248 1.32444 28.8535 0.60373 32.148C-0.116981 35.4426 0.0846719 38.8739 1.18624 42.0599L8.05247 30.1199C8.82031 28.7675 9.84833 27.5827 11.0764 26.6349C12.3045 25.6871 13.708 24.9953 15.2048 24.6C16.6983 24.1819 18.2604 24.0728 19.797 24.279C21.3335 24.4852 22.8127 25.0026 24.1452 25.8C25.4997 26.5716 26.6888 27.6059 27.6439 28.8429C28.5989 30.08 29.3009 31.4954 29.7093 33.0072C30.1177 34.5191 30.2244 36.0974 30.0232 37.651C29.822 39.2046 29.3169 40.7026 28.5371 42.0585C27.7573 43.4144 26.7183 44.6013 25.4801 45.5505C24.2419 46.4997 22.829 47.1925 21.3233 47.5888C19.8175 47.985 18.2487 48.0769 16.7074 47.8591C15.1662 47.6414 13.6831 47.1182 12.3439 46.3199L16.2776 39.4199C16.9499 39.8122 17.7226 39.995 18.4981 39.9451C19.2735 39.8952 20.0168 39.6149 20.634 39.1396C21.2512 38.6643 21.7144 38.0155 21.9652 37.2751C22.2159 36.5348 22.2429 35.7362 22.0427 34.9804C21.8425 34.2246 21.4241 33.5455 20.8404 33.0291C20.2567 32.5128 19.534 32.1823 18.7638 32.0795C17.9935 31.9766 17.2102 32.1061 16.513 32.4515C15.8158 32.797 15.2361 33.3428 14.8472 34.0199L2.33061 55.8599C2.05164 56.3098 1.8654 56.8116 1.783 57.3354C1.7006 57.8592 1.72371 58.3943 1.85096 58.9089C1.97821 59.4235 2.207 59.9071 2.52371 60.3309C2.84042 60.7547 3.23858 61.11 3.69449 61.3757C4.15041 61.6414 4.65476 61.8121 5.17754 61.8776C5.70033 61.9431 6.23085 61.902 6.73754 61.7568C7.24423 61.6117 7.71674 61.3654 8.12695 61.0327C8.53716 60.6999 8.87668 60.2875 9.12531 59.8199L12.8207 53.3399C16.736 54.5713 20.9511 54.4246 24.7726 52.924C28.5941 51.4234 31.7946 48.6583 33.8476 45.0834C35.9006 41.5085 36.684 37.3368 36.0689 33.2541C35.4538 29.1715 33.4768 25.4212 30.4631 22.62H30.4511ZM53.1597 27.2999H47.0803V44.6999H50.6564V38.9999H53.1597C56.6763 38.9999 59.5968 37.1999 59.5968 33.1199C59.5968 29.0399 56.6763 27.2999 53.1597 27.2999ZM53.0405 35.8199H50.5968V30.4199H53.0405C54.7094 30.4199 55.9015 31.1999 55.9015 33.1199C55.9015 35.0399 54.769 35.8199 53.0405 35.8199ZM68.3584 37.5599H75.2723V34.4999H68.3584V30.4799H76.226V27.2999H64.7823V44.6999H76.5836V41.5799H68.3584V37.5599ZM86.12 27.2999H82.5438V44.6999H93.9279V41.5799H86.12V27.2999ZM106.862 27.0599C105.108 27.0718 103.397 27.6062 101.944 28.5957C100.492 29.5852 99.3626 30.9855 98.6996 32.6201C98.0365 34.2547 97.8691 36.0503 98.2185 37.7805C98.5679 39.5108 99.4184 41.0981 100.663 42.3424C101.907 43.5867 103.49 44.4322 105.211 44.7723C106.932 45.1124 108.714 44.9319 110.333 44.2535C111.953 43.5752 113.336 42.4293 114.309 40.9605C115.283 39.4916 115.802 37.7655 115.802 35.9999C115.818 34.8166 115.596 33.6421 115.152 32.5465C114.707 31.4509 114.048 30.4565 113.214 29.6225C112.38 28.7884 111.388 28.1317 110.297 27.6915C109.205 27.2513 108.037 27.0365 106.862 27.0599ZM106.862 41.7599C103.703 41.7599 101.557 39.2399 101.557 35.9999C101.557 32.7599 103.703 30.24 106.862 30.24C110.021 30.24 112.166 32.7599 112.166 35.9999C112.166 39.2399 110.021 41.7599 106.862 41.7599ZM119.617 30.4199H124.564V44.6999H128.14V30.4199H133.087V27.24H119.617V30.4199ZM145.842 27.0599C144.088 27.0718 142.377 27.6062 140.924 28.5957C139.472 29.5852 138.343 30.9855 137.68 32.6201C137.017 34.2547 136.849 36.0503 137.199 37.7805C137.548 39.5108 138.398 41.0981 139.643 42.3424C140.887 43.5867 142.47 44.4322 144.191 44.7723C145.912 45.1124 147.694 44.9319 149.314 44.2535C150.933 43.5752 152.316 42.4293 153.29 40.9605C154.263 39.4916 154.782 37.7655 154.782 35.9999C154.798 34.8166 154.576 33.6421 154.132 32.5465C153.687 31.4509 153.028 30.4565 152.194 29.6225C151.36 28.7884 150.368 28.1317 149.277 27.6915C148.185 27.2513 147.017 27.0365 145.842 27.0599ZM145.782 41.7599C142.623 41.7599 140.478 39.2399 140.478 35.9999C140.478 32.7599 142.623 30.24 145.782 30.24C148.941 30.24 151.099 32.7599 151.099 35.9999C151.099 39.2399 149.001 41.7599 145.782 41.7599ZM171.364 34.6199C171.364 35.8199 171.602 37.7999 171.602 37.7999C170.982 36.9538 170.305 36.1519 169.576 35.3999L160.874 27.12H160.516V44.6999H163.794V37.3799C163.794 36.1199 163.556 34.1999 163.556 34.1999C163.556 34.1999 164.807 35.7599 165.642 36.5999L174.344 44.8799H174.701V27.2999H171.364V34.6199ZM179.052 22.29C179.055 22.1896 179.036 22.0899 178.997 21.9975C178.958 21.9051 178.9 21.8221 178.826 21.754C178.753 21.6859 178.666 21.6343 178.572 21.6026C178.477 21.5708 178.377 21.5597 178.278 21.57H177.384C177.353 21.5727 177.324 21.5862 177.302 21.6081C177.28 21.6301 177.267 21.659 177.264 21.69H177.145V23.91C177.148 23.9409 177.161 23.9698 177.183 23.9918C177.205 24.0137 177.234 24.0272 177.264 24.03H177.443C177.474 24.0272 177.503 24.0137 177.524 23.9918C177.546 23.9698 177.56 23.9409 177.562 23.91V23.13H178.039L178.397 23.91C178.429 23.9425 178.471 23.9636 178.516 23.97H178.754C178.874 23.97 178.933 23.85 178.874 23.79C178.754 23.49 178.635 23.25 178.516 23.0099C178.672 22.9663 178.809 22.872 178.906 22.7418C179.003 22.6116 179.054 22.4527 179.052 22.29ZM178.278 22.65H177.682V21.93H178.278C178.326 21.9229 178.376 21.9274 178.422 21.943C178.469 21.9586 178.511 21.9849 178.546 22.0199C178.581 22.0548 178.607 22.0974 178.622 22.1443C178.638 22.1912 178.642 22.241 178.635 22.29C178.637 22.3377 178.629 22.3852 178.611 22.4297C178.594 22.4741 178.568 22.5145 178.534 22.5482C178.501 22.582 178.461 22.6085 178.416 22.626C178.372 22.6435 178.325 22.6516 178.278 22.65Z" fill="#898989"/>
<path d="M178.039 20.4299C177.442 20.4392 176.871 20.6824 176.448 21.108C176.025 21.5336 175.784 22.1081 175.774 22.7099C175.774 23.1609 175.907 23.6017 176.156 23.9766C176.405 24.3516 176.759 24.6438 177.173 24.8164C177.586 24.9889 178.042 25.0341 178.481 24.9461C178.921 24.8582 179.324 24.641 179.641 24.3221C179.958 24.0033 180.173 23.597 180.261 23.1547C180.348 22.7125 180.303 22.254 180.132 21.8374C179.96 21.4208 179.67 21.0647 179.298 20.8142C178.925 20.5637 178.487 20.4299 178.039 20.4299ZM178.039 24.6899C177.543 24.6767 177.07 24.4742 176.716 24.1234C176.362 23.7726 176.153 23.2996 176.132 22.7999C176.132 22.4202 176.244 22.049 176.454 21.7332C176.663 21.4175 176.961 21.1714 177.309 21.0261C177.658 20.8808 178.041 20.8427 178.411 20.9168C178.781 20.9909 179.121 21.1738 179.388 21.4423C179.655 21.7108 179.836 22.0529 179.91 22.4254C179.984 22.7978 179.946 23.1839 179.801 23.5347C179.657 23.8855 179.413 24.1854 179.099 24.3964C178.785 24.6073 178.417 24.7199 178.039 24.7199V24.6899Z" fill="#898989"/>
</g>
<defs>
<clipPath id="clip0">
<rect width="180" height="72" fill="white" transform="translate(0.304626)"/>
</clipPath>
</defs>
</svg>
