<svg width="35" height="35" viewBox="0 0 35 35" fill="none" xmlns="http://www.w3.org/2000/svg">
<path d="M33.3684 5.53034L28.8448 1.01092C28.5257 0.690416 28.1465 0.436115 27.7288 0.262629C27.3111 0.0891437 26.8633 -0.000108396 26.411 9.87965e-08C25.4893 9.87965e-08 24.6228 0.361044 23.9729 1.01092L19.1053 5.87864C18.7848 6.19774 18.5305 6.57703 18.357 6.99471C18.1835 7.41239 18.0943 7.86023 18.0944 8.3125C18.0944 9.23422 18.4554 10.1007 19.1053 10.7506L22.6647 14.3101C21.8315 16.1466 20.6731 17.8172 19.2455 19.2415C17.8214 20.6727 16.1508 21.8353 14.3141 22.6735L10.7547 19.1141C10.4356 18.7936 10.0563 18.5393 9.63865 18.3658C9.22097 18.1923 8.77314 18.103 8.32087 18.1032C7.39916 18.1032 6.53267 18.4642 5.8828 19.1141L1.01091 23.9775C0.690014 24.2972 0.435499 24.6772 0.262007 25.0957C0.0885163 25.5141 -0.000526347 25.9627 2.34053e-06 26.4157C2.34053e-06 27.3374 0.361041 28.2039 1.01091 28.8538L5.52601 33.3689C6.5624 34.4096 7.99381 35 9.46345 35C9.77352 35 10.0708 34.9745 10.3639 34.9235C16.0896 33.9806 21.7685 30.9351 26.3515 26.3562C30.9304 21.7816 33.9716 16.1068 34.9273 10.3641C35.2161 8.60983 34.6342 6.80461 33.3684 5.53034V5.53034Z" fill="#F47F13"/>
</svg>
