<svg width="146" height="72" viewBox="0 0 146 72" fill="none" xmlns="http://www.w3.org/2000/svg">
<g clip-path="url(#clip0)">
<path d="M50.3884 36.5101C49.1485 35.8141 48.4991 35.2501 48.4991 34.4581C48.4991 33.4321 49.3788 32.8021 50.7781 32.8021C51.8347 32.8261 52.8762 33.0627 53.8423 33.4981L54.9818 29.9581C54.9818 29.9581 53.9368 29.1301 50.8489 29.1301C46.5507 29.1301 43.5573 31.6441 43.5573 35.1301C43.5573 37.1161 44.9566 38.6401 46.8105 39.7321C48.3102 40.5961 48.8297 41.2201 48.8297 42.1321C48.8297 43.0441 48.0858 43.8541 46.6747 43.8541C45.2659 43.7968 43.8868 43.424 42.6363 42.7621L41.4555 46.3021C42.9372 47.1393 44.6141 47.5539 46.3087 47.5021C50.7367 47.5021 53.8955 45.2881 53.8955 41.3161C53.9368 39.1561 52.3072 37.6321 50.3884 36.5101ZM114.572 21.8461C114.196 21.8444 113.824 21.919 113.477 22.0654C113.131 22.2118 112.816 22.4271 112.552 22.6987C112.288 22.9703 112.08 23.2927 111.94 23.647C111.801 24.0013 111.732 24.3804 111.738 24.7621C111.738 26.2501 112.647 27.2761 114.047 27.2761H114.112C114.493 27.291 114.874 27.2262 115.23 27.0857C115.586 26.9452 115.91 26.732 116.181 26.4592C116.453 26.1865 116.667 25.86 116.809 25.5C116.952 25.14 117.02 24.7541 117.011 24.3661C117.035 24.0325 116.988 23.6975 116.875 23.3835C116.761 23.0696 116.583 22.7838 116.353 22.5453C116.122 22.3068 115.844 22.1211 115.537 22.0005C115.23 21.8799 114.901 21.8273 114.572 21.8461ZM102.457 29.0641C99.1328 29.0641 97.2435 32.0641 97.2435 32.0641H97.1786L97.4738 29.3821H93.1106C92.8804 31.1821 92.5202 33.9481 92.101 36.0361L88.6825 54.3661H93.6007L94.9645 46.9561H95.0649C95.9568 47.4327 96.9571 47.6605 97.9638 47.6161C103.756 47.6161 107.534 41.6161 107.534 35.5081C107.534 32.0761 106.07 29.0641 102.457 29.0641ZM97.769 43.8001C97.0322 43.8107 96.316 43.5532 95.7498 43.0741L96.5645 38.4001C97.1549 35.2921 98.7432 33.2041 100.438 33.2041C101.937 33.2041 102.392 34.6261 102.392 35.9521C102.404 39.1561 100.503 43.8001 97.769 43.8001ZM68.0358 29.0641C67.0307 29.0805 66.0422 29.327 65.1437 29.785C64.2453 30.2431 63.4599 30.9011 62.8461 31.7101L62.7812 31.6741L64.6528 21.6001H59.7346L54.9464 47.1961H59.894L61.5236 38.4601C62.173 35.1481 63.8321 33.1321 65.3967 33.1321C66.5067 33.1321 66.9258 33.8941 66.9258 34.9861C66.9305 35.7302 66.8552 36.4726 66.7015 37.2001L64.8417 47.2321H69.7598L71.6787 36.9061C71.9017 35.8283 72.0223 34.7313 72.0388 33.6301C72.0447 30.7501 70.5746 29.0641 68.0358 29.0641ZM83.1799 29.0641C77.2758 29.0641 73.3141 34.4641 73.3141 40.5421C73.3141 44.4181 75.6758 47.5621 80.0861 47.5621C85.9135 47.5621 89.822 42.2641 89.822 36.0781C89.8516 32.4721 87.8028 29.0641 83.1799 29.0641ZM80.771 43.6861C79.0765 43.6861 78.4094 42.2341 78.4094 40.4101C78.4094 37.5361 79.8736 32.8681 82.5423 32.8681C84.3135 32.8681 84.8508 34.3921 84.8508 35.8681C84.839 39.0001 83.3747 43.6861 80.771 43.6861ZM107.664 47.1961H112.618L115.971 29.4601H110.988L107.664 47.1961ZM128.476 29.4001H125.052L125.217 28.5721C125.512 26.8501 126.487 25.3261 128.169 25.3261C128.702 25.3269 129.231 25.4182 129.734 25.5961L130.714 21.6901C129.862 21.3567 128.951 21.2095 128.039 21.2581C126.29 21.2073 124.581 21.7947 123.222 22.9141C121.527 24.3721 120.748 26.4541 120.358 28.5721L120.205 29.4001H117.926L117.205 33.1741H119.484L116.881 47.1721H121.799L124.402 33.1741H127.791L128.476 29.4001ZM140.326 29.4601C140.326 29.4601 137.238 37.3381 135.862 41.6341H135.797C135.703 40.2481 134.617 29.4601 134.617 29.4601H129.439L132.391 45.7381C132.466 46.0161 132.432 46.3129 132.296 46.5661C131.653 47.767 130.739 48.7952 129.628 49.5661C128.777 50.1829 127.839 50.6663 126.847 51.0001L128.211 55.2361C130.011 54.7437 131.667 53.8129 133.034 52.5241C135.278 50.3761 137.362 47.0941 139.482 42.5941L145.504 29.4601H140.326ZM30.9639 20.7541C30.7985 20.7541 27.7048 20.5261 27.7048 20.5261C27.7048 20.5261 25.5557 18.3421 25.2959 18.1261C25.2432 18.0755 25.1835 18.0331 25.1188 18.0001L23.5896 54.1801L35.7698 51.4981L31.3417 21.0901C31.329 20.9973 31.2837 20.9123 31.2144 20.8506C31.145 20.7889 31.056 20.7546 30.9639 20.7541ZM24.4693 17.9461C24.4339 17.9461 23.9793 18.0781 23.2885 18.3061C22.5682 16.1881 21.2988 14.2381 19.0552 14.2381H18.8604C18.6184 13.8892 18.3022 13.6002 17.9352 13.3925C17.5683 13.1848 17.1601 13.0636 16.7408 13.0381C11.498 13.0381 8.99462 19.6921 8.20937 23.0641C6.19016 23.6641 4.72594 24.1561 4.56653 24.2221C3.42703 24.5881 3.3857 24.6241 3.26172 25.7161C3.10821 26.5141 0.144341 49.8421 0.144341 49.8421L23.0346 54.2101L24.5992 17.9101C24.5638 17.9101 24.4988 17.9461 24.4693 17.9461ZM18.642 19.5301V19.7641L14.6035 21.0001C15.3829 17.9581 16.8471 16.4701 18.1165 15.9061C18.5094 17.071 18.6875 18.2995 18.642 19.5301ZM16.5578 14.4661C16.8025 14.4707 17.0398 14.5525 17.2368 14.7001C15.5777 15.4921 13.7533 17.5141 13.0094 21.5521C11.8994 21.9121 10.8249 22.2481 9.81529 22.5421C10.695 19.4641 12.8087 14.4661 16.5578 14.4661ZM17.467 32.4661C16.532 32.0087 15.5111 31.7611 14.4736 31.7401C12.0293 31.7401 11.9349 33.2941 11.9349 33.6901C11.9349 35.7781 17.3844 36.6001 17.3844 41.6041C17.3844 45.5401 14.9401 48.0541 11.622 48.0541C10.5085 48.0822 9.4016 47.873 8.37252 47.44C7.34344 47.007 6.415 46.3598 5.64698 45.5401L6.72153 41.9401C6.72153 41.9401 8.80569 43.7401 10.5651 43.7401C10.7758 43.7481 10.9859 43.713 11.1829 43.6368C11.3799 43.5606 11.5598 43.4448 11.7119 43.2965C11.8639 43.1481 11.985 42.9701 12.068 42.7732C12.1509 42.5762 12.194 42.3643 12.1947 42.1501C12.1947 39.3721 7.70162 39.2401 7.70162 34.6741C7.70162 30.8341 10.3998 27.0961 15.9024 27.0961C16.9879 27.0284 18.073 27.2345 19.0611 27.6961L17.467 32.4661ZM20.0058 19.3621V18.9361C20.0318 17.8478 19.8781 16.7628 19.5512 15.7261C20.732 15.8581 21.47 17.2141 21.9601 18.7261C21.3756 18.9061 20.7261 19.1041 20.0058 19.3321V19.3621Z" fill="#898989"/>
</g>
<defs>
<clipPath id="clip0">
<rect width="145.241" height="72" fill="white" transform="translate(0.263794)"/>
</clipPath>
</defs>
</svg>
