<svg width="22" height="19" viewBox="0 0 22 19" fill="none" xmlns="http://www.w3.org/2000/svg">
<path d="M20.3733 1.07109L20.3885 1.06522L20.4034 1.05837C20.75 0.898644 20.9223 0.968772 20.9668 1.00566C21.0032 1.03585 21.1513 1.21253 21.0064 1.80014L21.0037 1.81115L21.0015 1.82227L17.9657 17.0788C17.8624 17.5529 17.7013 17.6983 17.612 17.7395C17.5267 17.7787 17.3332 17.8023 16.9621 17.6014L12.1367 13.9913L11.7915 13.733L11.4853 14.0364C10.352 15.1592 9.63002 15.8651 9.16565 16.3099C9.1458 16.3269 9.12699 16.343 9.10911 16.3583C8.92705 16.5143 8.84246 16.5868 8.76346 16.6335C8.71364 16.663 8.67071 16.6807 8.55406 16.6807C8.52577 16.6807 8.5123 16.6777 8.50809 16.6765C8.50548 16.6745 8.49979 16.6696 8.4908 16.6593C8.44192 16.6028 8.37306 16.4784 8.26843 16.1953L9.03791 16.1186L9.47097 12.2927L18.1304 4.3942L18.1544 4.37236L18.1753 4.34761C18.289 4.21309 18.3677 4.04831 18.3901 3.8719C18.412 3.69905 18.3813 3.4792 18.2246 3.30048C18.0575 3.10989 17.8222 3.05088 17.6117 3.07223C17.4165 3.09201 17.2314 3.17817 17.0643 3.29138L6.46881 10.0362L6.14305 10.2436L6.1663 10.3158L6.14842 10.3102L1.49378 8.83799C1.3253 8.78095 1.28602 8.66937 1.29237 8.59054C1.2983 8.51688 1.36232 8.33262 1.7158 8.22695L1.73397 8.22152L1.75167 8.21473L20.3733 1.07109ZM8.50977 16.6775C8.50976 16.6776 8.50933 16.6774 8.50848 16.6768L8.50977 16.6775Z" fill="#EB7B14" stroke="#EB7B14"/>
</svg>
