<svg width="148" height="72" viewBox="0 0 148 72" fill="none" xmlns="http://www.w3.org/2000/svg">
<g clip-path="url(#clip0)">
<path d="M126.791 16.8001C124.062 16.793 121.393 17.5984 119.121 19.1144C116.849 20.6303 115.076 22.7887 114.027 25.3163C112.978 27.8439 112.7 30.6269 113.228 33.3132C113.756 35.9995 115.066 38.4682 116.993 40.4068C118.92 42.3454 121.376 43.6668 124.052 44.2036C126.727 44.7403 129.501 44.4684 132.023 43.4223C134.544 42.3762 136.699 40.6028 138.216 38.3267C139.733 36.0506 140.542 33.3741 140.542 30.6361C140.539 26.9738 139.09 23.4618 136.513 20.8688C133.936 18.2757 130.44 16.8128 126.791 16.8001ZM137.553 22.9141C136.839 23.3904 136.096 23.8212 135.329 24.2041C134.864 23.2779 134.3 22.4049 133.648 21.6001C134.21 21.256 134.746 20.871 135.251 20.4481C136.106 21.1654 136.867 21.9879 137.517 22.8961L137.553 22.9141ZM131.717 18.3061C132.824 18.76 133.862 19.3658 134.802 20.1061C134.322 20.4998 133.815 20.8587 133.284 21.1801C132.605 20.3976 131.843 19.6914 131.012 19.0741C131.265 18.842 131.501 18.5913 131.717 18.3241V18.3061ZM132.77 21.4621C132.028 21.8633 131.249 22.1908 130.444 22.4401C130.107 21.6656 129.723 20.9122 129.296 20.1841C129.739 19.9837 130.16 19.7363 130.551 19.4461C131.358 20.0391 132.102 20.7147 132.77 21.4621ZM131.131 18.1141C130.947 18.3281 130.747 18.5286 130.533 18.7141C129.804 18.2144 129.029 17.7845 128.22 17.4301C129.214 17.5366 130.193 17.7581 131.137 18.0901L131.131 18.1141ZM130.067 19.0741C129.736 19.3143 129.379 19.5156 129.003 19.6741C128.593 19.0315 128.148 18.4125 127.67 17.8201C128.504 18.1646 129.305 18.5864 130.061 19.0801L130.067 19.0741ZM127.024 17.9161C127.538 18.5392 128.015 19.1923 128.453 19.8721C127.989 20.0155 127.509 20.1001 127.024 20.1241V17.9161ZM127.024 20.6941C127.616 20.6702 128.201 20.5632 128.764 20.3761C129.184 21.0834 129.56 21.8169 129.888 22.5721C128.952 22.8163 127.991 22.9512 127.024 22.9741V20.6941ZM126.426 17.9401V20.1241C125.951 20.1006 125.481 20.0159 125.027 19.8721C125.454 19.2 125.921 18.5548 126.426 17.9401ZM124.477 19.6741C124.104 19.5158 123.751 19.3144 123.425 19.0741C124.178 18.5766 124.979 18.1565 125.816 17.8201C125.338 18.4093 124.894 19.0263 124.489 19.6681L124.477 19.6741ZM125.284 17.4241C124.472 17.7818 123.694 18.2115 122.958 18.7081C122.744 18.5241 122.544 18.3235 122.36 18.1081C123.309 17.7766 124.292 17.5552 125.29 17.4481L125.284 17.4241ZM134.737 41.1961C132.907 40.1881 132.871 38.7961 132.943 38.2681C133.015 37.7401 133.403 37.9801 133.625 37.9801C134.82 37.9801 136.1 37.6201 137.66 36.0181C138.682 34.835 139.215 33.3055 139.152 31.7413C139.089 30.1772 138.433 28.6962 137.319 27.6001C134.402 24.7861 131.293 25.2781 129.302 27.8101C129 28.1038 128.642 28.3325 128.249 28.4821C127.857 28.6317 127.438 28.6991 127.018 28.6801C125.738 28.6321 126.546 29.6401 126.546 29.8801C126.546 30.1201 126.348 30.2401 126.241 30.2041C125.804 30.0841 125.978 30.7321 125.978 30.9241C125.976 30.9986 125.947 31.07 125.897 31.1244C125.846 31.1787 125.777 31.2121 125.702 31.2181C125.164 31.2181 125.308 31.7101 125.326 31.8181C125.336 31.9061 125.322 31.9953 125.285 32.0757C125.248 32.1562 125.19 32.2249 125.117 32.2741C125.001 32.383 124.908 32.5139 124.844 32.6591C124.779 32.8044 124.744 32.9611 124.74 33.1201C124.74 33.7201 125.278 34.1161 126.169 34.7881C126.473 34.9723 126.726 35.2305 126.905 35.5388C127.084 35.8471 127.182 36.1956 127.191 36.5521C127.192 37.1228 127.283 37.6899 127.46 38.2321C127.699 38.8321 127.664 39.9001 126.432 39.9481C124.919 40.0081 122.247 41.2201 122.002 41.3041C121.087 41.6307 120.1 41.6971 119.15 41.4961C118.682 41.1569 118.239 40.7861 117.822 40.3861C117.767 40.0873 117.778 39.78 117.853 39.4857C117.928 39.1914 118.067 38.9171 118.259 38.6821C118.738 39.0511 119.338 39.2247 119.939 39.1681C120.874 39.0976 121.803 38.9612 122.719 38.7601C122.813 38.7184 122.915 38.6969 123.018 38.6969C123.121 38.6969 123.223 38.7184 123.317 38.7601C124.106 39.0481 125.188 39.1381 125.625 37.6201C126.061 36.1021 125.027 36.5221 124.895 36.5881C124.764 36.6541 124.584 36.6361 124.65 36.5041C124.842 36.1201 124.555 36.1621 124.393 36.1501C123.95 36.2114 123.54 36.4231 123.233 36.7501C123.181 36.8068 123.114 36.8476 123.04 36.8678C122.966 36.8879 122.888 36.8867 122.815 36.8641C122.247 36.5821 120.579 36.9901 120.064 36.0781C119.955 34.5395 119.731 33.0113 119.395 31.5061C119.351 31.4097 119.334 31.3034 119.344 31.198C119.355 31.0926 119.393 30.9919 119.455 30.9061C119.885 30.2701 121.051 30.9601 121.685 30.9421C121.905 30.96 122.127 30.9128 122.321 30.8062C122.516 30.6996 122.675 30.5383 122.779 30.3421C122.976 30.0901 123.126 30.2281 123.233 30.1621C123.341 30.0961 123.233 29.8921 123.287 29.7961C123.341 29.7001 123.395 29.7421 123.526 29.6281C123.658 29.5141 123.526 29.2681 123.574 29.1721C123.765 28.8901 124.274 29.1181 123.963 28.3741C123.909 28.1734 123.909 27.9624 123.961 27.7615C124.014 27.5606 124.117 27.3768 124.262 27.2281C124.626 26.7481 126.055 24.7441 123.544 22.6561C121.153 20.6641 118.725 20.8261 117.165 22.5241C115.604 24.2221 116.381 26.7241 116.567 27.3241C116.619 27.6348 116.563 27.9539 116.408 28.2281C116.254 28.5022 116.01 28.7148 115.718 28.8301C114.956 29.2535 114.24 29.7563 113.583 30.3301C113.635 27.7343 114.448 25.2114 115.92 23.077C117.393 20.9425 119.461 19.2914 121.864 18.3301C122.078 18.5972 122.312 18.8479 122.564 19.0801C122.019 19.4821 120.818 20.5621 120.818 20.5621C120.818 20.5621 120.979 20.5621 121.129 20.6221L121.463 20.7181C121.463 20.7181 122.516 19.8121 123.018 19.4581C123.406 19.7534 123.827 20.0011 124.274 20.1961C124.034 20.6041 123.431 21.7381 123.431 21.7381C123.431 21.7381 123.574 21.8221 123.694 21.9061C123.765 21.9532 123.833 22.0053 123.897 22.0621C123.897 22.0621 124.555 20.8201 124.806 20.4061C125.359 20.5876 125.934 20.6945 126.516 20.7241V23.0041C126.187 23.0041 125.362 22.9561 125.021 22.9201H124.812L124.925 23.0941C125.01 23.2155 125.084 23.344 125.146 23.4781L125.176 23.5261H125.23C125.475 23.5261 126.235 23.5741 126.516 23.5801V27.7261H127.114V26.7541C127.957 26.7121 128.656 26.6581 129.505 26.5801H129.541L130.282 25.9141L129.882 25.9561C128.991 26.0701 128.202 26.1241 127.49 26.1661H127.119V23.5561C128.163 23.5328 129.201 23.3858 130.211 23.1181C130.492 23.8081 131.012 25.4641 131.012 25.4641L131.55 25.2961C131.55 25.2961 131.036 23.6461 130.761 22.9621C131.618 22.6914 132.447 22.3378 133.236 21.9061C133.868 22.6936 134.415 23.5464 134.868 24.4501C134.462 24.6361 133.714 24.9001 133.714 24.9001C134.068 24.9383 134.418 25.0066 134.761 25.1041L135.107 24.9601C135.161 25.0741 135.263 25.3201 135.263 25.3201L136.004 25.6501L135.92 25.4401C135.92 25.4401 135.675 24.8401 135.61 24.7141C136.379 24.3231 137.124 23.8843 137.84 23.4001C139.666 26.2099 140.364 29.6097 139.792 32.915C139.221 36.2203 137.423 39.1857 134.761 41.2141L134.737 41.1961ZM111.724 20.4721L111.509 20.6701C110.701 21.3841 108.854 23.2801 109.117 25.3621L109.147 25.5121L109.237 25.9201L109.494 25.6801C110.762 24.3714 111.58 22.6891 111.825 20.8801L111.921 20.2801L111.706 20.4721H111.724ZM107.969 24.0721L107.879 24.3241C107.644 24.9864 107.482 25.6725 107.395 26.3701C107.222 27.7441 107.252 29.6821 108.447 31.1341L108.579 31.3081L108.716 31.4821L108.89 30.6001C109.067 28.4828 108.852 26.3509 108.256 24.3121L108.065 23.8201L107.969 24.0721ZM106.606 29.6881V29.9461C106.462 31.3441 106.558 34.8001 109.344 36.6001L109.667 36.8161V36.4261C109.625 35.1181 108.101 31.2061 106.953 29.8261L106.63 29.4301V29.6821L106.606 29.6881ZM107.06 35.8681L107.114 36.1021C107.521 38.0821 109.392 41.2921 112.286 42.2281L112.68 42.3541L112.537 41.9641C111.999 40.4821 109.213 37.0261 107.419 35.8861L107.018 35.6281L107.06 35.8681Z" fill="#898989"/>
<path d="M112.896 23.466L112.669 23.598C110.51 24.924 109.506 26.52 109.578 28.488V28.944L109.888 28.68C111.255 27.3136 112.299 25.6569 112.944 23.832L113.093 23.322L112.872 23.466H112.896ZM111.628 27.78L111.461 27.936C110.911 28.464 109.123 30.372 109.279 32.736C109.316 33.1288 109.4 33.5157 109.53 33.888L109.655 34.266L109.888 33.942C110.737 32.742 111.867 29.562 111.808 28.08V27.63L111.646 27.786L111.628 27.78ZM111.712 31.872L111.598 32.052C110.757 33.2113 110.292 34.6022 110.265 36.036C110.298 36.9939 110.607 37.9217 111.156 38.706L111.347 38.982L111.503 38.688C111.891 37.956 112.202 35.58 112.154 33.696C112.155 33.1599 112.088 32.6258 111.957 32.106L111.844 31.692L111.712 31.872ZM112.764 36.246L112.71 36.432C112.445 37.2489 112.317 38.1048 112.334 38.964C112.332 39.82 112.552 40.6617 112.971 41.4072C113.39 42.1527 113.995 42.7766 114.725 43.218L114.982 43.38L115.042 43.032V42.75C115.006 41.262 113.9 37.518 113.039 36.372L112.8 36.06L112.74 36.246H112.764ZM109.727 42.048L109.841 42.234C111.001 44.19 112.968 46.704 116.645 46.056L116.961 46.008L116.782 45.744C116.095 44.718 111.628 42.186 110.044 41.928L109.613 41.862L109.727 42.048ZM115.174 47.004L114.576 47.16L115.132 47.388C117.476 48.348 120.405 48.63 122.109 48.06C122.687 47.8404 123.204 47.4844 123.616 47.022C126.605 47.34 129.41 49.836 131.048 51.876L131.131 51.978L131.263 51.936C131.487 51.8403 131.69 51.7017 131.861 51.528L131.974 51.402L131.873 51.264C130.634 49.7521 129.11 48.5002 127.389 47.58C124.997 46.38 120.746 45.486 115.18 46.98L115.174 47.004ZM115.299 40.752L115.329 40.956C115.676 43.164 116.579 46.068 120.304 45.756H120.543L120.483 45.522C120.226 44.514 116.812 41.598 115.622 40.77L115.269 40.584L115.299 40.782V40.752ZM141.636 20.28L141.732 20.88C141.975 22.6888 142.79 24.3716 144.058 25.68L144.315 25.92L144.405 25.512V25.362C144.692 23.28 142.844 21.384 142.013 20.664L141.792 20.472L141.583 20.28H141.636ZM145.511 23.82L145.319 24.312C144.72 26.3503 144.506 28.4827 144.686 30.6L144.859 31.482L144.997 31.308L145.128 31.134C146.324 29.682 146.354 27.738 146.18 26.37C146.093 25.6724 145.931 24.9863 145.696 24.324L145.606 24.066L145.511 23.82ZM146.952 29.436L146.629 29.832C145.493 31.23 143.962 35.142 143.92 36.432V36.822L144.255 36.606C147.035 34.806 147.113 31.326 147.017 29.928V29.418L146.952 29.436ZM146.521 35.628L146.121 35.886C144.327 37.026 141.541 40.482 141.003 41.964L140.853 42.354L141.254 42.228C144.148 41.292 146.037 38.082 146.425 36.102L146.479 35.862L146.521 35.628ZM140.542 23.256L140.692 23.772C141.296 25.6101 142.306 27.2877 143.645 28.68L143.956 28.944V28.494C144.07 26.526 143.089 24.894 140.967 23.544L140.74 23.4L140.512 23.256H140.542ZM141.78 27.6V28.05C141.726 29.532 142.85 32.706 143.711 33.912L143.944 34.236L144.064 33.858C144.2 33.4879 144.283 33.0999 144.309 32.706C144.464 30.348 142.677 28.44 142.127 27.906L141.965 27.75L141.798 27.594L141.78 27.6ZM141.738 31.692L141.612 32.106C141.484 32.6262 141.42 33.1602 141.421 33.696C141.379 35.58 141.684 37.956 142.079 38.688L142.228 38.988L142.42 38.706C142.969 37.9221 143.276 36.9937 143.304 36.036C143.279 34.6029 142.816 33.2122 141.977 32.052L141.852 31.872L141.738 31.692ZM140.751 36.06L140.506 36.372C139.651 37.518 138.545 41.262 138.503 42.75V43.032L138.557 43.38L138.82 43.212C139.548 42.7689 140.15 42.1455 140.569 41.4017C140.988 40.6578 141.209 39.8184 141.212 38.964C141.22 38.1049 141.091 37.25 140.829 36.432L140.769 36.246L140.716 36.06H140.751ZM143.956 41.862L143.526 41.928C141.947 42.186 137.475 44.718 136.793 45.744L136.62 46.008L136.925 46.056C140.608 46.704 142.575 44.19 143.735 42.234L143.849 42.048L143.956 41.862Z" fill="#898989"/>
<path d="M126.192 47.5799C124.467 48.4988 122.939 49.7507 121.696 51.2639L121.595 51.4019L121.708 51.5279C121.88 51.7002 122.083 51.8386 122.306 51.9359L122.432 51.9779L122.521 51.8759C124.154 49.8359 126.958 47.3339 129.953 47.0219C130.361 47.4841 130.877 47.8385 131.454 48.0539C133.158 48.6539 136.093 48.3479 138.437 47.3879L138.987 47.1599L138.389 47.0039C132.823 45.4859 128.584 46.4039 126.18 47.6039L126.192 47.5799ZM138.306 40.5539L137.947 40.7399C136.751 41.5679 133.343 44.4899 133.092 45.4919L133.038 45.7259H133.271C136.996 46.0439 137.893 43.1399 138.246 40.9259L138.276 40.7219V40.5239L138.306 40.5539ZM44.18 18.1619H48.8375V22.4219H44.18V18.1619ZM48.4668 47.9999H44.5566V27.2579H48.4668V47.9999ZM14.9851 27.2759H18.8953V48.0299H15.0867V44.9999H14.9851C13.4186 47.6099 10.7998 48.6779 7.89411 48.6779C3.62518 48.6479 1.12003 45.3419 1.12003 41.1659V27.2759H5.0362V39.5579C5.0362 43.1579 5.86128 45.7979 9.61005 45.7979C10.5898 45.8166 11.5527 45.5409 12.3752 45.0064C13.1976 44.4718 13.8421 43.7027 14.2257 42.7979C14.7366 41.2312 14.9929 39.5923 14.9851 37.9439V27.2759ZM26.7396 30.3359H26.8173C28.1386 27.7319 31.0025 26.6579 33.0832 26.6579C34.5241 26.6579 40.9095 27.0299 40.9095 33.6839V48.0299H36.9934V34.9679C36.9934 31.5359 35.5524 29.6759 32.2581 29.6759C30.8441 29.6643 29.4824 30.2118 28.4675 31.1999C27.8696 31.7999 26.8173 32.6879 26.8173 36.7439V48.0299H22.9071V27.2759H26.7396V30.3359ZM64.8609 33.9299C64.6517 31.3379 63.432 29.5379 60.6399 29.5379C56.921 29.5379 55.486 32.7779 55.486 37.6319C55.486 42.4859 56.921 45.7199 60.6399 45.7199C63.2168 45.7199 64.8251 44.0399 65.0164 41.0819H68.9146C68.5798 45.7199 65.1479 48.5579 60.604 48.5579C54.0272 48.5579 51.3905 43.8779 51.3905 37.7939C51.3905 31.7099 54.4457 26.6999 60.9328 26.6999C65.2735 26.6999 68.5439 29.4539 68.7412 33.8999H64.8609V33.9299ZM74.7739 38.3999C74.487 41.9999 75.9697 45.7559 79.9277 45.7559C82.959 45.7559 84.4777 44.5559 84.9201 41.5559H89.0216C88.4237 46.2419 84.7946 48.5819 79.8919 48.5819C73.3151 48.5819 70.6724 43.9019 70.6724 37.8179C70.6724 31.7339 73.7097 26.7239 80.2386 26.7239C86.379 26.8559 89.2787 30.7499 89.2787 36.4679V38.3999H74.7739ZM85.1712 35.6879C85.2549 32.2439 83.6944 29.5679 79.9277 29.5679C76.6932 29.5679 74.7739 32.3159 74.7739 35.6879H85.1712ZM93.6433 47.9399V30.0299H90.1158V27.3119H93.6433V22.8779C93.7748 18.3599 97.1709 17.1719 100.083 17.1719C101.019 17.2287 101.949 17.3652 102.863 17.5799V20.8259C102.205 20.7899 101.553 20.6999 100.896 20.6999C98.6895 20.6999 97.416 21.2999 97.5356 23.5379V27.3119H102.319V30.0299H97.5356V47.9399H93.6433Z" fill="#898989"/>
</g>
<defs>
<clipPath id="clip0">
<rect width="146.483" height="72" fill="white" transform="translate(0.635986)"/>
</clipPath>
</defs>
</svg>
